<svg width="580" height="95" viewBox="0 0 580 95" fill="none" xmlns="http://www.w3.org/2000/svg">
<path d="M54.7967 24.459H53.0884V81.2038L0.61442 23.1777H0.400879V91.4382H2.10921V35.3392L54.479 93.36H54.7967V24.459Z" fill="black"/>
<path d="M101.407 23.1777C82.2087 23.1777 64.7139 33.4173 64.7139 58.1621C64.7139 86.6413 87.9691 93.36 101.407 93.36C114.74 93.36 138.099 86.6413 138.099 58.1621C138.099 33.4173 120.5 23.1777 101.407 23.1777ZM101.407 91.5475C89.3545 91.5475 72.5003 86.2142 72.5003 58.1621C72.5003 30.5371 91.0576 24.8861 101.407 24.8861C111.75 24.8861 130.313 30.5371 130.313 58.1621C130.313 86.2142 113.349 91.5475 101.407 91.5475Z" fill="black"/>
<path d="M146.734 86.4284V88.8815C146.734 88.8815 153.24 94.1055 164.76 94.1055C176.276 94.1055 187.266 86.1107 187.266 74.2669C187.266 50.3763 153.026 57.418 153.026 38.0065C153.026 30.4336 158.25 24.2461 167.427 24.2461C176.49 24.2461 182.359 28.6211 182.359 28.6211L182.25 26.3763C182.25 26.3763 175.849 22.4336 167.318 22.4336C158.891 22.4336 147.052 27.5534 147.052 40.8867C147.052 64.7773 181.182 55.819 181.182 76.9336C181.182 87.2826 173.292 92.4023 164.76 92.4023C155.583 92.4023 150.469 89.3086 146.734 86.4284Z" fill="black"/>
<path d="M291.255 23.1777H291.042L261.068 79.9225L231.526 23.1777H231.203L222.031 91.4382H223.74L230.885 38.5371L257.443 89.6257H257.87L285.281 37.6829L291.573 91.4382H299.255L291.255 23.1777Z" fill="black"/>
<path d="M359.406 91.4382H367.619L338.291 23.1777H337.755L307.359 91.4382H309.703L321.755 64.5632H347.781L359.406 91.4382ZM322.505 62.7507L334.984 34.6986L347.036 62.7507H322.505Z" fill="black"/>
<path d="M423.51 91.4382L398.442 59.8704C406.338 58.8027 418.281 54.9642 418.281 41.2038C418.281 26.485 402.281 24.459 396.843 24.459C391.614 24.459 376.578 24.459 376.578 24.459V91.4382H384.151V60.2975H389.057L413.802 91.4382H423.51ZM384.151 26.1673H392.791C403.671 26.1673 410.177 30.6465 410.177 42.3757C410.177 54.3236 402.494 58.5892 390.015 58.5892H384.151V26.1673Z" fill="black"/>
<path d="M433.32 91.4382H440.893V24.459H433.32V91.4382Z" fill="black"/>
<path d="M469.798 16.776H468.303L476.303 0.140625H483.34L469.798 16.776ZM486.647 26.1667V24.4583H452.73V91.4375H486.647V89.7344H460.303V57.3073H483.767V55.6042H460.303V26.1667H486.647Z" fill="black"/>
<path d="M530.27 26.1673V24.459H496.353V91.4382H530.27V89.735H503.926V57.3079H527.389V55.6048H503.926V26.1673H530.27Z" fill="black"/>
<path d="M538.59 86.4284V88.8815C538.59 88.8815 545.095 94.1055 556.616 94.1055C568.132 94.1055 579.121 86.1107 579.121 74.2669C579.121 50.3763 544.882 57.418 544.882 38.0065C544.882 30.4336 550.105 24.2461 559.283 24.2461C568.345 24.2461 574.215 28.6211 574.215 28.6211L574.105 26.3763C574.105 26.3763 567.704 22.4336 559.173 22.4336C550.746 22.4336 538.908 27.5534 538.908 40.8867C538.908 64.7773 573.038 55.819 573.038 76.9336C573.038 87.2826 565.147 92.4023 556.616 92.4023C547.439 92.4023 542.324 89.3086 538.59 86.4284Z" fill="black"/>
</svg>
