<svg width="450" height="71" viewBox="0 0 450 71" fill="none" xmlns="http://www.w3.org/2000/svg">
<path d="M56.245 62.5475C56.245 62.5475 49.0991 68.735 36.7293 68.735C24.7814 68.735 7.82308 63.4017 7.82308 35.3496C7.82308 7.72461 26.3804 2.07357 36.7293 2.07357C49.3127 2.07357 56.245 7.08398 56.245 7.08398V4.74023C56.245 4.74023 48.8856 0.365234 36.7293 0.365234C17.5314 0.365234 0.0366211 10.6048 0.0366211 35.3496C0.0366211 63.8288 22.3283 70.5475 35.771 70.5475C49.0991 70.5475 56.245 64.8965 56.245 64.8965V62.5475Z" fill="black"/>
<path d="M101.79 0.365234C82.592 0.365234 65.0972 10.6048 65.0972 35.3496C65.0972 63.8288 88.3524 70.5475 101.79 70.5475C115.123 70.5475 138.483 63.8288 138.483 35.3496C138.483 10.6048 120.884 0.365234 101.79 0.365234ZM101.79 68.735C89.7378 68.735 72.8836 63.4017 72.8836 35.3496C72.8836 7.72461 91.4409 2.07357 101.79 2.07357C112.134 2.07357 130.696 7.72461 130.696 35.3496C130.696 63.4017 113.733 68.735 101.79 68.735Z" fill="black"/>
<path d="M202.899 1.64648H201.191V58.3913L148.717 0.365234H148.503V68.6257H150.212V12.5267L202.582 70.5475H202.899V1.64648Z" fill="black"/>
<path d="M260.92 1.64648H212.071V3.35482H232.655V68.6257H240.337V3.35482H260.92V1.64648Z" fill="black"/>
<path d="M320.326 68.6257H328.54L299.212 0.365234H298.675L268.279 68.6257H270.623L282.675 41.7507H308.701L320.326 68.6257ZM283.425 39.9382L295.904 11.8861L307.956 39.9382H283.425Z" fill="black"/>
<path d="M392.852 62.5475C392.852 62.5475 385.707 68.735 373.337 68.735C361.389 68.735 344.431 63.4017 344.431 35.3496C344.431 7.72461 362.988 2.07357 373.337 2.07357C385.92 2.07357 392.852 7.08398 392.852 7.08398V4.74023C392.852 4.74023 385.493 0.365234 373.337 0.365234C354.139 0.365234 336.644 10.6048 336.644 35.3496C336.644 63.8288 358.936 70.5475 372.378 70.5475C385.707 70.5475 392.852 64.8965 392.852 64.8965V62.5475Z" fill="black"/>
<path d="M449.809 1.64648H400.96V3.35482H421.543V68.6257H429.226V3.35482H449.809V1.64648Z" fill="black"/>
</svg>
