<svg width="605" height="73" viewBox="0 0 605 73" fill="none" xmlns="http://www.w3.org/2000/svg">
<path d="M0.119629 64.4284V66.8815C0.119629 66.8815 6.62484 72.1055 18.1457 72.1055C29.6665 72.1055 40.6509 64.1107 40.6509 52.2669C40.6509 28.3763 6.4113 35.418 6.4113 16.0065C6.4113 8.43359 11.6405 2.24609 20.8123 2.24609C29.88 2.24609 35.7446 6.62109 35.7446 6.62109L35.6353 4.3763C35.6353 4.3763 29.2394 0.433594 20.703 0.433594C12.2811 0.433594 0.437337 5.55339 0.437337 18.8867C0.437337 42.7773 34.5728 33.819 34.5728 54.9336C34.5728 65.2826 26.6769 70.4023 18.1457 70.4023C8.9738 70.4023 3.854 67.3086 0.119629 64.4284Z" fill="black"/>
<path d="M98.7798 2.45898V43.735C98.7798 64.11 88.4308 68.5892 76.2746 68.5892C58.2485 68.5892 57.2902 52.2663 57.2902 44.6934V2.45898H49.7173V44.6934C49.7173 66.4538 62.0871 71.36 74.6756 71.36C91.7381 71.36 100.592 62.2923 100.592 44.6934V2.45898H98.7798Z" fill="black"/>
<path d="M112.003 69.4382H119.576V2.45898H112.003V69.4382Z" fill="black"/>
<path d="M187.622 2.45898L162.346 59.3079L138.028 2.45898H129.815L159.039 70.8288H159.68L190.075 2.45898H187.622Z" fill="black"/>
<path d="M232.737 4.16732V2.45898H198.82V69.4382H232.737V67.735H206.393V35.3079H229.857V33.6048H206.393V4.16732H232.737Z" fill="black"/>
<path d="M251.297 67.735L289.589 2.45898H241.058V4.16732H279.667L241.375 69.4382H289.907V67.735H251.297Z" fill="black"/>
<path d="M299.291 36.8021H348.139V35.0938H299.291V36.8021Z" fill="black"/>
<path d="M412.667 2.45898H410.959V59.2038L358.485 1.17773H358.271V69.4382H359.98V13.3392L412.35 71.36H412.667V2.45898Z" fill="black"/>
<path d="M459.277 1.17773C440.079 1.17773 422.584 11.4173 422.584 36.1621C422.584 64.6413 445.84 71.36 459.277 71.36C472.611 71.36 495.97 64.6413 495.97 36.1621C495.97 11.4173 478.371 1.17773 459.277 1.17773ZM459.277 69.5475C447.225 69.5475 430.371 64.2142 430.371 36.1621C430.371 8.53711 448.928 2.88607 459.277 2.88607C469.621 2.88607 488.183 8.53711 488.183 36.1621C488.183 64.2142 471.22 69.5475 459.277 69.5475Z" fill="black"/>
<path d="M554.735 2.45898V43.735C554.735 64.11 544.386 68.5892 532.23 68.5892C514.204 68.5892 513.246 52.2663 513.246 44.6934V2.45898H505.673V44.6934C505.673 66.4538 518.043 71.36 530.631 71.36C547.694 71.36 556.548 62.2923 556.548 44.6934V2.45898H554.735Z" fill="black"/>
<path d="M564.438 64.4284V66.8815C564.438 66.8815 570.944 72.1055 582.465 72.1055C593.985 72.1055 604.97 64.1107 604.97 52.2669C604.97 28.3763 570.73 35.418 570.73 16.0065C570.73 8.43359 575.959 2.24609 585.131 2.24609C594.199 2.24609 600.063 6.62109 600.063 6.62109L599.954 4.3763C599.954 4.3763 593.558 0.433594 585.022 0.433594C576.6 0.433594 564.756 5.55339 564.756 18.8867C564.756 42.7773 598.892 33.819 598.892 54.9336C598.892 65.2826 590.996 70.4023 582.465 70.4023C573.293 70.4023 568.173 67.3086 564.438 64.4284Z" fill="black"/>
</svg>
