<svg version="1.1" id="Layer_1" xmlns="http://www.w3.org/2000/svg" xmlns:xlink="http://www.w3.org/1999/xlink" x="0px" y="0px"
	 width="100%" viewBox="0 0 784 464" enable-background="new 0 0 784 464" xml:space="preserve">
<path fill="#000000" opacity="1.000000" stroke="none" 
	d="
M209.831329,350.918335 
	C196.575775,357.708130 183.575958,364.211182 168.577454,364.309692 
	C147.344147,364.449158 135.473022,352.910858 134.753967,331.561768 
	C134.125504,312.901917 138.895676,295.247833 145.496902,278.087524 
	C163.024261,232.523880 188.639389,192.181152 223.948776,158.223709 
	C224.902969,157.306046 226.033264,156.571487 228.072311,154.976471 
	C222.245636,154.095978 218.073257,155.635101 213.888885,156.339020 
	C185.634949,161.092041 157.663422,167.027298 130.832870,177.385529 
	C101.442513,188.732010 74.660309,204.249619 52.596054,227.111771 
	C38.199459,242.028992 27.895878,259.283356 23.299194,279.692108 
	C22.948648,281.248474 22.871426,283.003082 20.735235,283.882599 
	C19.187538,282.262909 20.086393,280.563202 20.455708,278.878113 
	C26.318256,252.128662 40.660786,230.547745 61.101513,212.825546 
	C87.692581,189.771027 119.163979,176.026962 152.373657,165.781845 
	C177.223831,158.115631 202.637558,153.004700 228.405762,149.598373 
	C232.563385,149.048767 236.220596,147.668549 239.743225,145.023117 
	C262.701904,127.781631 286.411469,111.738228 313.341766,101.124138 
	C321.282654,97.994385 329.476562,95.906189 337.947723,94.897820 
	C346.007019,93.938469 352.141907,96.567795 354.645599,102.036896 
	C357.790924,108.907631 356.355652,115.029671 350.044464,120.878357 
	C342.770874,127.618889 333.693176,131.047867 324.564728,134.229294 
	C303.902100,141.430664 282.554688,146.640686 260.913788,148.479324 
	C243.592163,149.950974 232.570480,159.251205 222.177597,170.948715 
	C194.071014,202.583511 171.508484,237.809128 154.547760,276.574432 
	C147.449417,292.798370 141.563812,309.519196 140.661331,327.355560 
	C139.800415,344.370056 145.693939,359.210754 168.082748,358.827057 
	C177.807419,358.660370 186.784500,355.969910 195.526794,352.186554 
	C219.271347,341.910736 240.192429,327.042114 260.690277,311.568512 
	C282.517395,295.091400 303.362762,277.427094 323.069946,258.450378 
	C325.817291,255.804825 328.100922,252.684570 330.737274,249.915482 
	C336.117218,244.264633 341.920593,239.342773 350.430908,239.650726 
	C352.632446,239.730408 354.933105,239.738052 355.934479,242.187500 
	C356.865265,244.464203 355.792297,246.463867 354.435333,248.197449 
	C349.555450,254.431824 342.613281,257.192902 335.309570,259.227631 
	C329.449097,260.860291 325.125732,270.958801 328.131134,276.283661 
	C329.826996,279.288391 332.618378,279.924469 335.812714,279.896851 
	C343.901245,279.826935 351.056946,276.585632 358.119354,273.241180 
	C370.200867,267.519928 381.350037,260.219604 392.250183,252.515457 
	C394.781891,250.726105 396.603821,248.539810 398.097168,245.856827 
	C415.523254,214.549255 437.568542,186.963135 464.722961,163.525208 
	C472.056793,157.195114 479.705383,151.276688 488.589844,147.244904 
	C491.880737,145.751511 495.768494,143.767059 498.822876,146.913666 
	C501.951874,150.137131 499.625732,153.968887 497.932190,157.086807 
	C491.573700,168.793076 482.253784,178.188889 473.052826,187.575256 
	C453.325226,207.700424 432.085846,226.212921 410.664581,244.481735 
	C404.075500,250.101120 399.649170,256.732727 396.246735,264.459595 
	C390.939392,276.512360 385.716522,288.555939 383.706604,301.717621 
	C382.603210,308.943268 385.249146,311.602936 392.190735,309.646698 
	C400.878174,307.198517 407.940948,301.811005 414.938416,296.412079 
	C431.171021,283.887756 445.604370,269.205322 462.115082,257.011139 
	C463.186676,256.219666 464.186707,255.257126 465.374664,254.709656 
	C472.553864,251.401123 477.997284,246.257309 481.927948,239.444382 
	C482.174103,239.017822 482.548981,238.662338 482.881317,238.289246 
	C484.208130,236.799728 485.481323,234.834427 487.804260,236.595810 
	C490.172241,238.391357 488.583252,240.024979 487.383575,241.683182 
	C484.064972,246.270264 480.665070,250.808060 477.561554,255.538712 
	C474.081329,260.843628 471.078033,266.435364 469.693909,272.714447 
	C468.121887,279.846008 471.402100,282.987732 478.446259,281.150757 
	C485.837616,279.223236 492.093475,275.020966 498.382538,270.956512 
	C510.550018,263.092957 522.485840,254.861298 534.797424,247.233734 
	C542.874695,242.229492 549.074707,239.227814 559.677979,248.300766 
	C560.618164,248.391571 561.215393,247.834518 561.785889,247.205612 
	C563.240417,245.602295 564.873413,245.180161 566.544128,246.787155 
	C568.258240,248.435928 567.499207,250.066788 566.307373,251.671188 
	C561.922119,257.574341 558.386719,263.997314 554.910950,270.453522 
	C552.368225,275.176605 550.500977,280.151825 549.583069,285.447845 
	C549.118164,288.129822 548.926514,290.931854 551.230835,292.885498 
	C553.411133,294.733978 555.825195,293.220978 557.838318,292.385925 
	C564.973999,289.425903 571.095215,284.751862 577.271423,280.211060 
	C589.214722,271.430267 600.615295,261.897644 613.277222,254.113907 
	C617.033997,251.804489 620.915527,249.703247 625.423096,249.123062 
	C626.098877,251.724640 624.397766,252.280472 623.181335,252.880325 
	C607.343201,260.690338 594.186646,272.361511 580.068787,282.653870 
	C572.158447,288.420776 564.658203,294.968323 554.792847,297.398438 
	C548.795654,298.875732 545.239319,296.258850 544.727356,289.990021 
	C544.175964,283.238037 545.899109,276.846130 548.445007,269.842865 
	C544.555054,272.163452 541.336182,274.166870 537.712463,275.319305 
	C533.611450,276.623505 529.392334,277.439636 525.890564,274.270111 
	C522.257141,270.981476 522.298157,266.631378 523.637329,262.227905 
	C524.110657,260.671661 524.658630,259.138153 525.508057,256.586090 
	C517.112610,262.376740 509.572357,267.737122 501.866516,272.847870 
	C494.115784,277.988403 486.497223,283.477234 477.127136,285.458496 
	C468.979767,287.181183 463.904297,282.627655 464.851410,274.247437 
	C465.454224,268.913605 467.259430,263.889404 469.728638,259.112793 
	C470.320221,257.968384 470.794983,256.763580 471.936432,254.221130 
	C462.957672,259.664825 456.197723,265.690735 449.284332,271.522919 
	C434.143768,284.295532 419.829010,298.082642 403.219818,309.055542 
	C400.004303,311.179901 396.605927,312.921265 392.988220,314.229614 
	C383.288544,317.737488 376.757965,313.283478 376.773041,302.872345 
	C376.783020,296.003693 378.608002,289.395020 380.841278,282.928711 
	C383.881500,274.125854 387.884552,265.723145 392.185150,256.448944 
	C380.469116,264.322479 369.616730,271.928833 357.562592,277.518463 
	C350.296112,280.888000 342.983490,284.145508 334.775818,284.334229 
	C324.585175,284.568604 319.699585,279.004852 321.165863,268.919495 
	C321.279541,268.137390 321.421326,267.359375 321.699493,265.673889 
	C286.984589,298.257294 251.218506,327.992584 209.831329,350.918335 
M271.398773,130.951706 
	C264.689026,135.469940 257.810883,139.761887 250.489670,145.946716 
	C263.593140,143.641068 275.231995,141.816971 286.771790,139.499680 
	C298.330170,137.178680 309.832611,134.529449 321.041260,130.787094 
	C330.524231,127.620895 339.958771,124.317322 347.642822,117.563782 
	C351.318848,114.332916 353.037628,110.210243 351.265076,105.472183 
	C349.518768,100.804314 345.372437,99.534157 340.773682,99.332390 
	C335.857086,99.116676 331.196625,100.387527 326.629547,101.915222 
	C306.886597,108.519226 289.370087,119.403419 271.398773,130.951706 
M469.529083,185.040527 
	C478.039154,176.135757 486.550446,167.223099 493.240051,156.802887 
	C494.378906,155.028885 496.335266,153.223358 494.979797,150.633606 
	C474.189575,154.619858 422.593323,214.474014 410.117828,240.440674 
	C430.536652,222.260071 450.396545,204.561874 469.529083,185.040527 
M555.340881,256.154877 
	C557.052368,254.522156 557.275757,253.043030 555.554199,251.052780 
	C551.858826,246.780579 547.173889,245.819580 542.199768,248.855957 
	C536.327637,252.440536 532.480286,257.874908 529.326782,263.792603 
	C528.126099,266.045837 526.420532,268.679535 528.555847,271.214203 
	C530.901245,273.998383 533.862427,272.547791 536.374634,271.456512 
	C543.857910,268.205688 549.778259,262.897278 555.340881,256.154877 
M351.003296,247.532761 
	C351.802032,246.512817 353.131989,245.486710 352.079742,244.098770 
	C351.163574,242.890228 349.616943,243.219116 348.374512,243.664429 
	C342.327179,245.831787 337.566895,249.542114 333.855621,256.029907 
	C340.719086,254.584839 346.018402,252.180222 351.003296,247.532761 
z"/>
<path fill="#000000" opacity="1.000000" stroke="none" 
	d="
M343.648254,230.605850 
	C346.728027,228.339798 349.521973,226.280121 352.329651,224.239334 
	C355.234894,222.127609 357.773132,222.280121 360.284119,225.981339 
	C353.625061,229.784897 347.371521,233.885437 339.953613,236.645187 
	C339.409607,232.810303 342.009338,232.264984 343.648254,230.605850 
z"/>
<path fill="#000000" opacity="1.000000" stroke="none" 
	d="
M491.337189,228.868790 
	C491.540955,226.280594 492.494629,224.642838 494.985413,224.888504 
	C497.165863,225.103577 498.564026,226.566681 498.962311,228.654968 
	C499.270355,230.270111 498.366791,231.586182 496.775452,232.027298 
	C494.219696,232.735733 492.265015,231.970047 491.337189,228.868790 
z"/>
</svg>