<svg width="326" height="104" viewBox="0 0 326 104" fill="none" xmlns="http://www.w3.org/2000/svg">
<path d="M67.918 103.835C68.6367 103.835 69.4336 103.835 70.2357 103.757C89.8346 101.918 122.788 70.7201 136.548 54.0846L136.626 53.7617C136.626 53.5221 136.387 53.2826 136.069 53.2826C135.986 53.2826 135.908 53.2826 135.829 53.444C124.548 66.4023 89.4336 101.678 68.1576 101.678C65.7565 101.678 63.5951 101.277 61.6784 100.319C56.0794 97.6784 53.1159 91.0378 53.1159 82.7982C53.1159 74.2409 56.319 63.9232 62.8763 54.6419C68.0742 47.3659 74.1576 39.7669 84.2357 35.6836C88.3138 34.0065 91.8346 33.3659 94.5534 33.3659C99.1107 33.3659 101.829 34.8867 103.033 35.6055L103.512 35.7669C104.23 35.7669 104.871 34.8034 104.871 34.0846C104.871 33.8451 104.793 33.6836 104.71 33.5273C102.069 31.2878 98.3919 26.7253 98.3919 20.168C98.3919 18.168 98.793 15.9284 99.6732 13.5273C101.59 13.8503 104.871 14.2461 108.23 14.2461C113.428 14.2461 118.71 13.2096 119.267 9.04818V8.64714C119.267 5.44922 115.668 2.64714 111.111 2.64714H110.632C105.751 2.80859 100.392 5.85026 97.7513 11.9284C84.6315 9.85026 51.3555 0.0898438 27.1992 0.0898438C13.7617 0.0898438 3.1263 3.13151 0.402344 12.0898L0.324219 12.4076C0.324219 12.7305 0.485677 12.8867 0.641927 12.8867C0.886719 12.8867 1.04297 12.7305 1.20443 12.3294C3.68359 4.2513 13.6836 1.44922 26.4805 1.44922C50.5586 1.44922 84.4753 11.1263 97.2721 13.2878C96.7096 15.4492 96.4701 17.4492 96.4701 19.3659C96.4701 25.6888 99.0326 30.5638 102.069 33.2044C99.4336 32.0846 96.6315 31.5273 93.6732 31.5273C81.3555 31.5273 67.0378 40.8867 58.8763 54.5638C53.9961 62.6419 50.9596 73.1992 50.9596 82.4805C50.9596 94.2357 55.7565 103.835 67.918 103.835ZM107.751 12.7305C104.632 12.7305 101.59 12.4857 100.23 12.2461C102.152 7.92839 106.949 4.97005 110.871 4.56901H111.59C114.788 4.56901 117.272 6.32943 117.829 7.6888C117.908 8.08984 117.991 8.49089 117.991 8.80859C117.991 12.0065 112.71 12.7305 107.751 12.7305Z" fill="black"/>
<path d="M131.656 78.8812C139.578 78.8812 158.937 56.8812 166.693 53.9229C167.015 53.8447 167.172 53.6051 167.172 53.4437C167.172 53.2822 167.015 53.1208 166.776 53.1208L166.375 53.2041C156.776 57.4437 140.698 77.1208 132.14 77.2822C130.781 77.2822 130.219 76.2406 130.219 74.5583C130.219 68.5583 137.015 54.8812 137.896 53.7614C144.375 47.8447 175.974 21.7666 175.974 14.1676C175.974 13.6885 175.89 13.2874 175.573 12.9697C175.333 12.6468 174.932 12.4854 174.375 12.4854C169.172 12.4854 152.458 26.4072 140.776 44.402C136.14 51.6051 127.979 66.0791 127.979 73.8395C127.979 76.0791 128.62 77.7614 130.219 78.5583C130.698 78.7979 131.177 78.8812 131.656 78.8812ZM138.937 51.6833C145.495 40.6468 154.458 29.527 162.776 21.8447C168.932 16.1676 172.932 14.0062 174.292 14.0062C174.531 14.0062 174.614 14.0895 174.693 14.1676L174.771 14.4854C174.771 16.4072 169.094 23.2874 162.614 29.7666C154.937 37.4437 145.734 45.5218 138.937 51.6833Z" fill="black"/>
<path d="M169.889 47.8444L170.212 47.7611C172.53 46.5632 174.77 45.1257 177.171 44.084L177.332 43.9225C177.332 43.5215 176.369 42.8027 175.65 42.8027L175.332 42.8861C173.332 44.084 170.692 46.1621 169.41 47.3652L169.332 47.5215C169.332 47.6829 169.65 47.8444 169.889 47.8444ZM167.093 66.7194C173.572 66.7194 184.608 59.6829 192.369 53.7611C192.608 53.6048 192.686 53.4434 192.686 53.36C192.686 53.2038 192.53 53.0423 192.369 53.0423L191.968 53.2038C184.692 58.5632 173.889 65.36 167.889 65.36H167.494C165.65 65.2819 164.291 64.3236 164.291 62.1621C164.291 60.959 164.77 59.2819 165.811 57.2038C172.291 56.0007 175.811 52.7246 175.811 50.7246C175.811 49.9225 174.853 49.3652 173.41 49.3652C170.931 49.3652 166.931 51.1204 163.733 56.7194C162.853 58.3236 162.291 60.2402 162.291 62.0007C162.291 63.9225 162.931 65.5215 164.613 66.2402C165.332 66.5632 166.212 66.7194 167.093 66.7194ZM166.374 56.084C169.093 51.8444 172.291 50.485 173.811 50.485C174.212 50.485 174.53 50.5632 174.692 50.7246C174.853 50.8809 174.931 51.0423 174.931 51.2038C174.931 52.7246 170.212 55.7611 166.374 56.084Z" fill="black"/>
<path d="M188.206 67.1208C191.326 67.1208 195.888 60.3239 195.888 55.2041V55.1208C198.128 56.2406 200.607 56.7197 203.164 56.7197C207.644 56.7197 212.206 55.3604 215.404 53.8447C215.644 53.6833 215.805 53.5218 215.805 53.4437C215.805 53.2822 215.644 53.2041 215.482 53.2041L215.164 53.2822C212.362 54.6416 207.805 55.8447 203.565 55.8447C201.326 55.8447 199.086 55.5218 197.326 54.6416C194.368 53.1208 196.607 53.7614 194.529 51.0426C193.966 50.2406 193.086 49.9229 192.368 49.9229C191.565 49.9229 190.925 50.3239 190.925 50.9645C190.925 51.4437 191.248 52.0843 192.128 52.8031C190.685 54.1624 189.086 56.402 187.966 58.8031C187.17 60.3239 186.206 62.7197 186.206 64.5635C186.206 65.3604 186.368 66.0791 186.847 66.5635C187.248 66.9593 187.727 67.1208 188.206 67.1208ZM193.649 52.1624C193.164 51.8447 192.847 51.6051 192.607 51.2822L193.649 52.1624ZM188.685 65.9229C188.446 65.9229 188.289 65.8395 188.128 65.7614C188.05 65.6833 187.966 65.4437 187.966 65.0426C187.966 63.1989 189.565 58.2406 193.805 54.001L194.446 54.402L194.607 55.5218C194.607 59.2822 190.925 65.9229 188.685 65.9229Z" fill="black"/>
<path d="M207.401 68.959L207.802 68.8027C210.365 66.2402 216.36 59.6829 221.802 56.5632V58.4017C221.802 62.4017 222.521 68.0788 227.563 68.2402H227.719C233.719 68.2402 245.157 57.4434 250.756 53.6829C250.917 53.6048 250.995 53.5215 250.995 53.4434C250.995 53.2819 250.839 53.2038 250.677 53.2038H250.438C245.558 55.9225 233.881 67.1204 228.042 67.1204C225.078 67.0423 224.042 63.5215 224.042 60.0007C224.042 58.6413 224.203 57.2819 224.443 56.1621L224.521 55.5996C224.521 55.0423 224.203 54.9642 223.959 54.8027C223.719 54.6413 223.479 54.6413 223.162 54.6413C219.401 54.6413 210.282 64.6413 208.125 67.1204C210.521 62.3236 214.12 57.0423 217.323 52.7246C217.401 52.6413 217.479 52.485 217.479 52.4017C217.479 52.0007 216.922 51.5215 216.443 51.5215C216.203 51.5215 216.042 51.6048 215.802 51.8444C215.323 52.4017 212.443 56.8027 209.724 61.4434C208.042 64.2402 207.485 66.0788 206.761 68.0007V68.2402C206.761 68.6413 207.084 68.959 207.401 68.959Z" fill="black"/>
<path d="M246.515 67.1208C249.634 67.1208 254.197 60.3239 254.197 55.2041V55.1208C256.437 56.2406 258.916 56.7197 261.473 56.7197C265.952 56.7197 270.515 55.3604 273.713 53.8447C273.952 53.6833 274.114 53.5218 274.114 53.4437C274.114 53.2822 273.952 53.2041 273.791 53.2041L273.473 53.2822C270.671 54.6416 266.114 55.8447 261.874 55.8447C259.634 55.8447 257.395 55.5218 255.634 54.6416C252.676 53.1208 254.916 53.7614 252.838 51.0426C252.275 50.2406 251.395 49.9229 250.676 49.9229C249.874 49.9229 249.233 50.3239 249.233 50.9645C249.233 51.4437 249.556 52.0843 250.437 52.8031C248.994 54.1624 247.395 56.402 246.275 58.8031C245.478 60.3239 244.515 62.7197 244.515 64.5635C244.515 65.3604 244.676 66.0791 245.155 66.5635C245.556 66.9593 246.035 67.1208 246.515 67.1208ZM251.957 52.1624C251.473 51.8447 251.155 51.6051 250.916 51.2822L251.957 52.1624ZM246.994 65.9229C246.754 65.9229 246.598 65.8395 246.437 65.7614C246.358 65.6833 246.275 65.4437 246.275 65.0426C246.275 63.1989 247.874 58.2406 252.114 54.001L252.754 54.402L252.916 55.5218C252.916 59.2822 249.233 65.9229 246.994 65.9229Z" fill="black"/>
<path d="M272.59 70.0791C278.752 70.0791 295.226 57.2822 300.028 53.9229C300.346 53.7614 300.429 53.5218 300.429 53.4437C300.429 53.2822 300.346 53.2822 300.189 53.2822C300.028 53.2822 299.866 53.2822 299.627 53.4437C295.226 56.4801 278.273 68.7197 272.83 68.7197C272.512 68.7197 272.273 68.7197 272.033 68.6416C271.309 68.402 271.069 68.001 271.069 67.2822C271.069 64.7197 275.471 59.1208 275.471 55.4437C275.471 54.5635 275.231 53.7614 274.59 53.2041C275.788 52.4854 278.273 49.7614 278.273 48.5635C278.273 48.2458 278.111 48.0843 277.788 48.001L277.392 47.9229C275.392 47.9229 272.752 50.8812 272.752 52.8031C272.752 53.3604 272.991 53.8447 273.549 54.1624C273.872 54.402 274.033 54.8031 274.033 55.3604C274.033 55.8447 273.872 56.4801 273.71 57.0426C272.991 59.2822 269.872 64.2406 269.872 67.3604C269.872 68.5583 270.351 69.5218 271.632 69.9229L272.59 70.0791ZM274.189 52.4854V52.402C274.189 51.8447 276.111 49.6051 276.991 49.1208C277.069 49.1208 277.069 49.1208 277.069 49.2041C277.069 49.5218 275.392 51.8447 274.189 52.4854Z" fill="black"/>
<path d="M300.108 66.8809C306.504 66.8809 317.702 59.8392 325.462 53.9225C325.702 53.7611 325.78 53.6048 325.78 53.4434C325.78 53.36 325.624 53.2038 325.462 53.2038L325.061 53.36C317.863 58.7194 306.983 65.5215 300.983 65.5215H300.587C298.744 65.4434 297.384 64.4798 297.384 62.2402C297.384 61.0423 297.785 59.4434 298.827 57.36C305.384 56.084 308.905 52.8027 308.905 50.8027C308.905 50.0007 307.947 49.4434 306.504 49.4434C304.025 49.4434 300.108 51.2038 296.905 56.8809C296.025 58.4798 295.384 60.4017 295.384 62.2402C295.384 64.0788 296.025 65.6829 297.707 66.4017C298.426 66.7194 299.228 66.8809 300.108 66.8809ZM299.468 56.1621C302.186 52.084 305.306 50.5632 306.905 50.5632C307.306 50.5632 307.624 50.7246 307.785 50.8809C307.947 51.0423 308.025 51.2038 308.025 51.3652C308.025 52.8809 303.223 55.8444 299.468 56.1621Z" fill="black"/>
</svg>
