<svg width="227" height="98" viewBox="0 0 227 98" fill="none" xmlns="http://www.w3.org/2000/svg">
<path d="M28.1979 97.8024C43.7969 97.8024 60.1979 69.4014 70.8333 51.8024C74.9948 53.8805 79.3177 55.0003 83.3177 55.0003C88.3542 55.0003 92.9948 53.318 96.9948 49.4795C97.1563 49.318 97.2344 49.1618 97.2344 49.0003C97.2344 48.8389 97.0781 48.6826 96.8333 48.6826L96.4375 48.8389C94.4375 50.3597 90.1979 54.042 83.474 54.042C80.1146 54.042 76.1979 53.1618 71.5573 50.5993C82.3542 32.6826 94.4375 13.9587 108.995 0.521159C109.078 0.437826 109.156 0.281576 109.156 0.120117C109.156 -0.437175 108.516 -1.16113 107.875 -1.16113L107.557 -0.999674C81.2344 17.7191 0.515625 11.8024 0.515625 44.1201C0.515625 47.2399 1.23437 50.6826 2.91667 54.5993C3.07813 55.0003 3.39583 55.2399 3.55729 55.2399C3.71354 55.2399 3.875 55.0785 3.875 54.8389L3.79688 54.4378C2.27604 50.7607 1.55729 47.4795 1.55729 44.5993C1.55729 15.5628 71.0781 19.2399 101.474 4.12012C88.8333 17.2399 78.9167 33.2399 69.1563 49.318C63.1563 46.5212 57.0781 45.0785 51.3177 45.0785C37.875 45.0785 25.7969 52.6826 18.8333 67.2399C16.9167 71.1618 15.875 76.1201 15.875 80.9222C15.875 88.8389 18.8333 96.2816 25.9531 97.5628C26.6771 97.7191 27.3958 97.8024 28.1979 97.8024ZM27.474 96.2816C24.9167 96.2816 22.5156 95.1618 20.5156 92.5993C18.1146 89.5628 16.9948 85.7191 16.9948 81.4014C16.9948 73.0003 21.2344 63.1618 28.5938 56.042C34.3542 50.4378 42.0365 46.2816 51.3958 46.2816C56.5938 46.2816 62.276 47.5628 68.4375 50.5993C64.6771 56.7607 42.5938 96.2816 27.474 96.2816Z" fill="black"/>
<path d="M104.755 68.1979C110.114 68.1979 125.796 53 137.234 49.3177C137.473 49.2396 137.635 49.0781 137.635 48.9219C137.635 48.7604 137.473 48.599 137.234 48.599H137.077C125.557 52.1979 110.994 66.7604 105.958 66.7604C105.635 66.7604 105.317 66.7604 105.077 66.599C104.354 66.1979 104.036 65.401 104.036 64.4375C104.036 59.6406 110.838 49.5625 112.515 47.2396C112.593 47.0781 112.676 46.9219 112.676 46.7604C112.676 46.3594 112.275 46.1198 111.796 46.1198C111.557 46.1198 111.317 46.1979 111.156 46.3594C109.635 47.7187 96.1139 58.9219 93.7962 58.9219L93.5566 58.8385C93.3952 58.6823 93.2337 58.4375 93.2337 58.1198C93.2337 55.401 99.3952 47.5625 100.593 46.4375C100.755 46.2813 100.838 46.1198 100.838 45.9583C100.838 45.4792 100.197 45.0781 99.5566 45.0781C99.3171 45.0781 98.9941 45.1615 98.7546 45.401C96.9941 46.9219 92.3535 54.3594 92.3535 57.9583C92.3535 58.6823 92.515 59.2396 92.916 59.5625C93.0775 59.6406 93.2337 59.7187 93.5566 59.7187C96.2754 59.7187 104.838 53.4792 106.838 51.9583C105.156 54.599 102.114 60.599 102.114 64.599C102.114 66.1198 102.593 67.401 103.874 68.0417C104.114 68.1198 104.437 68.1979 104.755 68.1979Z" fill="black"/>
<path d="M132.834 74.2809C140.756 74.2809 160.115 52.2809 167.875 49.3174C168.193 49.2393 168.355 48.9997 168.355 48.8382C168.355 48.682 168.193 48.5205 167.954 48.5205L167.558 48.5986C157.954 52.8382 141.875 72.5205 133.318 72.682C131.954 72.682 131.396 71.6403 131.396 69.958C131.396 63.958 138.193 50.2809 139.073 49.1611C145.558 43.2393 177.157 17.1611 177.157 9.56217C177.157 9.0778 177.073 8.68197 176.756 8.35905C176.516 8.04134 176.115 7.87988 175.558 7.87988C170.355 7.87988 153.636 21.8018 141.954 39.8018C137.318 46.9997 129.157 61.4788 129.157 69.2393C129.157 71.4788 129.797 73.1611 131.396 73.958C131.875 74.1976 132.355 74.2809 132.834 74.2809ZM140.115 47.0778C146.678 36.0413 155.636 24.9216 163.954 17.2393C170.115 11.5622 174.115 9.40072 175.474 9.40072C175.714 9.40072 175.797 9.47884 175.875 9.56217L175.954 9.87988C175.954 11.8018 170.277 18.682 163.797 25.1611C156.115 32.8382 146.917 40.9216 140.115 47.0778Z" fill="black"/>
<path d="M175.557 41.6406C175.953 41.6406 176.354 41.5625 176.515 41.2396C176.677 41 176.755 40.7604 176.755 40.5208C176.755 40.1198 176.515 39.8021 176.276 39.5625C176.036 39.2396 175.635 39 175.156 39C174.833 39 174.594 39.0781 174.276 39.401C174.114 39.6406 173.953 40.0417 173.953 40.3594C173.953 40.7604 174.198 41.1615 174.515 41.401C174.755 41.5625 175.156 41.6406 175.557 41.6406ZM166.917 62.7604C172.833 62.7604 185.474 51.1615 190.437 49.3177C190.833 49.2396 190.995 49 190.995 48.8385C190.995 48.6823 190.833 48.599 190.594 48.599L190.198 48.6823C185.234 50.4375 172.755 61.4792 167.396 61.4792C166.917 61.4792 166.515 61.401 166.198 61.2396C165.396 60.8385 164.995 60.0417 164.995 58.9219C164.995 55.1615 169.713 48.1198 172.755 44.6823L172.917 44.3594C172.917 43.8802 172.354 43.3177 171.797 43.3177C171.635 43.3177 171.474 43.401 171.318 43.5625C169.156 45.9583 163.635 53.9583 163.635 58.9219C163.635 60.4375 164.198 61.7188 165.474 62.4375C165.875 62.6823 166.437 62.7604 166.917 62.7604Z" fill="black"/>
<path d="M197.714 67.4014C203.553 67.2399 216.834 53.1618 226.277 49.2399C226.433 49.0785 226.595 48.9222 226.595 48.8389C226.595 48.6826 226.433 48.5212 226.194 48.5212L225.876 48.5993C218.678 50.5993 203.235 66.1982 197.954 66.1982H197.798C196.996 66.1201 196.433 65.2399 196.433 63.641C196.433 61.9587 197.074 59.318 198.996 55.8805C200.595 53.0003 202.115 50.4378 203.636 48.5212L203.714 48.2816C203.714 47.8024 202.996 47.1618 202.433 47.1618C202.194 47.1618 202.037 47.2399 201.954 47.4014L200.834 49.0785C199.313 46.9222 197.798 46.042 196.037 46.042C195.553 46.042 194.996 46.042 194.516 46.1982C189.235 47.641 186.433 52.1201 186.433 55.4014C186.433 57.4014 187.475 58.9222 189.714 58.9222C191.397 58.9222 193.798 58.042 196.917 55.7191C195.636 58.3597 194.917 61.318 194.917 63.5628C194.917 65.8024 195.636 67.4014 197.475 67.4014H197.714ZM189.636 57.8805C188.516 57.8805 187.876 57.318 187.876 56.2816C187.876 55.1618 188.516 53.641 190.115 51.5628C191.798 49.318 193.954 47.318 196.115 47.318C197.475 47.318 198.834 48.1201 200.037 50.1982C195.954 55.4795 191.798 57.8805 189.636 57.8805Z" fill="black"/>
</svg>
