<svg width="279" height="101" viewBox="0 0 279 101" fill="none" xmlns="http://www.w3.org/2000/svg">
<path d="M123.612 100.237C127.534 100.237 131.612 99.1175 135.935 96.3206C136.253 96.1592 136.331 95.9196 136.331 95.7581C136.331 95.5186 136.175 95.3623 135.935 95.3623L135.534 95.5186C131.451 98.0811 127.774 99.1175 124.175 99.1175C107.378 99.1175 93.2997 76.0029 62.1017 74.8831C68.4194 67.5238 75.5392 56.0863 85.1382 40.4092C95.7788 22.9665 104.336 12.9717 110.097 7.69043C110.815 7.52897 111.456 7.28939 112.097 7.0498C116.977 5.21126 119.373 2.89355 119.373 1.69043C119.373 1.21126 118.977 0.893555 118.175 0.893555C115.373 0.893555 108.175 6.40918 107.617 6.88835C104.175 7.85189 100.419 8.25293 96.3361 8.25293C87.1382 8.25293 76.3413 6.25293 64.5028 4.49251C52.9819 2.7321 41.4663 1.0498 31.3049 1.0498C16.4299 1.0498 4.66943 4.7321 0.747559 17.6904L0.669434 18.0915C0.669434 18.3311 0.830892 18.4873 0.909018 18.4873C1.1486 18.4873 1.38818 18.3311 1.47152 17.8519C5.07048 5.93001 16.2684 2.49251 30.508 2.49251C50.5028 2.49251 76.4976 9.37272 95.4559 9.37272C99.1382 9.37272 102.576 9.13314 105.617 8.49251C87.9403 26.0081 75.9403 56.0863 59.6226 74.9613C51.3049 75.4404 43.1434 79.0394 43.1434 83.3623C43.1434 83.9196 43.3049 84.3988 43.5444 84.9613C43.8621 85.68 44.5861 86.1592 45.784 86.1592C48.5809 86.1592 53.7007 83.68 60.2632 76.7998H60.9038C90.1799 76.7998 105.695 100.237 123.612 100.237ZM45.5444 84.8831H45.4663C44.8257 84.8831 44.5861 84.6436 44.5861 84.1592C44.5861 82.3206 49.383 77.5238 57.8621 76.7998C52.5028 82.5602 48.9819 84.7217 45.5444 84.8831ZM113.133 5.13314L117.456 2.49251C116.737 3.21126 115.373 4.1696 113.133 5.13314Z" fill="black"/>
<path d="M105.69 70.6436C111.528 70.4821 124.809 56.404 134.247 52.4873C134.408 52.3258 134.565 52.1644 134.565 52.0863C134.565 51.9248 134.408 51.7633 134.164 51.7633L133.846 51.8467C126.648 53.8467 111.21 69.4456 105.929 69.4456H105.768C104.971 69.3623 104.408 68.4821 104.408 66.8831C104.408 65.2061 105.049 62.5654 106.971 59.1227C108.57 56.2425 110.091 53.6852 111.611 51.7633L111.69 51.5238C111.69 51.0446 110.971 50.404 110.408 50.404C110.169 50.404 110.007 50.4873 109.929 50.6436L108.809 52.3258C107.289 50.1644 105.768 49.2842 104.007 49.2842C103.528 49.2842 102.971 49.2842 102.492 49.4456C97.2104 50.8831 94.4136 55.3623 94.4136 58.6436C94.4136 60.6436 95.45 62.1644 97.6896 62.1644C99.3719 62.1644 101.768 61.2842 104.888 58.9665C103.611 61.6019 102.888 64.5654 102.888 66.805C102.888 69.0446 103.611 70.6436 105.45 70.6436H105.69ZM97.6115 61.1227C96.4917 61.1227 95.8511 60.5654 95.8511 59.5238C95.8511 58.404 96.4917 56.8831 98.0907 54.805C99.7729 52.5654 101.929 50.5654 104.091 50.5654C105.45 50.5654 106.809 51.3675 108.007 53.4456C103.929 58.7269 99.7729 61.1227 97.6115 61.1227Z" fill="black"/>
<path d="M134.246 65.5234C140.642 65.5234 151.84 58.4818 159.601 52.5651C159.84 52.4036 159.918 52.2474 159.918 52.0859C159.918 52.0026 159.762 51.8464 159.601 51.8464L159.2 52.0026C152.002 57.362 141.121 64.1641 135.121 64.1641H134.726C132.882 64.0859 131.522 63.1224 131.522 60.8828C131.522 59.6849 131.924 58.0859 132.965 56.0026C139.522 54.7266 143.043 51.4453 143.043 49.4453C143.043 48.6432 142.085 48.0859 140.642 48.0859C138.163 48.0859 134.246 49.8464 131.043 55.5234C130.163 57.1224 129.522 59.0443 129.522 60.8828C129.522 62.7214 130.163 64.3255 131.845 65.0443C132.564 65.362 133.366 65.5234 134.246 65.5234ZM133.606 54.8047C136.325 50.7266 139.444 49.2057 141.043 49.2057C141.444 49.2057 141.762 49.3672 141.924 49.5234C142.085 49.6849 142.163 49.8464 142.163 50.0078C142.163 51.5234 137.361 54.487 133.606 54.8047Z" fill="black"/>
<path d="M145.278 91.5182C145.518 91.5182 145.68 91.2786 145.68 90.9609L145.601 90.638C145.278 89.9193 145.122 88.9609 145.122 87.9193C145.122 73.6016 173.278 33.3672 181.034 22.5703C182.638 22.8099 184.153 23.1276 185.596 23.3672C192.633 24.5703 203.914 26.0859 214.393 26.0859C223.752 26.0859 232.549 24.888 237.268 21.2109C237.508 21.0495 237.591 20.8099 237.591 20.6484C237.591 20.487 237.43 20.3307 237.268 20.3307C237.107 20.3307 236.95 20.4089 236.711 20.5703C232.627 23.7682 225.028 24.8099 216.711 24.8099C205.752 24.8099 193.435 22.9661 185.997 21.7682C184.716 21.6068 183.435 21.2891 182.075 21.1276C184.638 17.2109 190.075 9.61198 193.836 4.64844C193.992 4.49219 194.075 4.2526 194.075 4.09115C194.075 3.61198 193.435 3.21094 192.794 3.21094C192.393 3.21094 191.997 3.37239 191.674 3.6901C188.315 7.92969 182.153 16.4089 179.278 20.5703C170.799 19.0495 161.039 17.2891 151.758 17.2891C143.841 17.2891 136.32 18.5703 130.32 22.3307C130.081 22.487 129.924 22.7266 129.924 22.888C129.924 23.0495 130.002 23.2109 130.242 23.2109L130.643 23.0495C136.164 19.6068 143.039 18.487 150.32 18.487C159.68 18.487 169.68 20.4089 178.315 22.0911C171.039 32.888 144.242 70.9609 144.242 87.5182C144.242 88.7995 144.398 90.0026 144.799 91.0391C144.961 91.362 145.122 91.5182 145.278 91.5182Z" fill="black"/>
<path d="M185.672 44.8877C186.073 44.8877 186.474 44.8044 186.636 44.4867C186.792 44.2471 186.875 44.0075 186.875 43.7679C186.875 43.3669 186.636 43.0439 186.396 42.8044C186.156 42.4867 185.755 42.2471 185.276 42.2471C184.953 42.2471 184.714 42.3252 184.396 42.6481C184.235 42.8877 184.073 43.2835 184.073 43.6064C184.073 44.0075 184.313 44.4033 184.636 44.6481C184.875 44.8044 185.276 44.8877 185.672 44.8877ZM177.037 66.0023C182.953 66.0023 195.594 54.4033 200.552 52.5648C200.953 52.4867 201.115 52.2471 201.115 52.0856C201.115 51.9242 200.953 51.846 200.714 51.846L200.313 51.9242C195.354 53.6846 182.875 64.721 177.516 64.721C177.037 64.721 176.636 64.6429 176.318 64.4814C175.516 64.0856 175.115 63.2835 175.115 62.1637C175.115 58.4033 179.833 51.3669 182.875 47.9242L183.037 47.6064C183.037 47.1273 182.474 46.5648 181.917 46.5648C181.755 46.5648 181.594 46.6429 181.432 46.8044C179.276 49.2054 173.755 57.2054 173.755 62.1637C173.755 63.6846 174.318 64.9606 175.594 65.6846C175.995 65.9242 176.557 66.0023 177.037 66.0023Z" fill="black"/>
<path d="M186.47 91.5182C186.71 91.5182 186.871 91.2786 186.871 90.9609L186.793 90.638C186.47 89.9193 186.314 88.9609 186.314 87.9193C186.314 73.6016 214.47 33.3672 222.226 22.5703C223.83 22.8099 225.345 23.1276 226.788 23.3672C233.825 24.5703 245.106 26.0859 255.585 26.0859C264.944 26.0859 273.741 24.888 278.46 21.2109C278.7 21.0495 278.783 20.8099 278.783 20.6484C278.783 20.487 278.621 20.3307 278.46 20.3307C278.299 20.3307 278.142 20.4089 277.903 20.5703C273.819 23.7682 266.22 24.8099 257.903 24.8099C246.944 24.8099 234.627 22.9661 227.189 21.7682C225.908 21.6068 224.627 21.2891 223.267 21.1276C225.83 17.2109 231.267 9.61198 235.028 4.64844C235.184 4.49219 235.267 4.2526 235.267 4.09115C235.267 3.61198 234.627 3.21094 233.986 3.21094C233.585 3.21094 233.189 3.37239 232.866 3.6901C229.507 7.92969 223.345 16.4089 220.47 20.5703C211.991 19.0495 202.231 17.2891 192.95 17.2891C185.033 17.2891 177.512 18.5703 171.512 22.3307C171.272 22.487 171.116 22.7266 171.116 22.888C171.116 23.0495 171.194 23.2109 171.434 23.2109L171.835 23.0495C177.356 19.6068 184.231 18.487 191.512 18.487C200.871 18.487 210.871 20.4089 219.507 22.0911C212.231 32.888 185.434 70.9609 185.434 87.5182C185.434 88.7995 185.59 90.0026 185.991 91.0391C186.153 91.362 186.314 91.5182 186.47 91.5182Z" fill="black"/>
<path d="M226.864 44.8877C227.265 44.8877 227.666 44.8044 227.827 44.4867C227.984 44.2471 228.067 44.0075 228.067 43.7679C228.067 43.3669 227.827 43.0439 227.588 42.8044C227.348 42.4867 226.947 42.2471 226.468 42.2471C226.145 42.2471 225.906 42.3252 225.588 42.6481C225.426 42.8877 225.265 43.2835 225.265 43.6064C225.265 44.0075 225.505 44.4033 225.827 44.6481C226.067 44.8044 226.468 44.8877 226.864 44.8877ZM218.229 66.0023C224.145 66.0023 236.786 54.4033 241.744 52.5648C242.145 52.4867 242.307 52.2471 242.307 52.0856C242.307 51.9242 242.145 51.846 241.906 51.846L241.505 51.9242C236.546 53.6846 224.067 64.721 218.708 64.721C218.229 64.721 217.827 64.6429 217.51 64.4814C216.708 64.0856 216.307 63.2835 216.307 62.1637C216.307 58.4033 221.025 51.3669 224.067 47.9242L224.229 47.6064C224.229 47.1273 223.666 46.5648 223.109 46.5648C222.947 46.5648 222.786 46.6429 222.624 46.8044C220.468 49.2054 214.947 57.2054 214.947 62.1637C214.947 63.6846 215.51 64.9606 216.786 65.6846C217.187 65.9242 217.749 66.0023 218.229 66.0023Z" fill="black"/>
<path d="M249.022 70.6436C254.86 70.4821 268.141 56.404 277.579 52.4873C277.74 52.3258 277.897 52.1644 277.897 52.0863C277.897 51.9248 277.74 51.7633 277.496 51.7633L277.178 51.8467C269.98 53.8467 254.542 69.4456 249.261 69.4456H249.1C248.303 69.3623 247.74 68.4821 247.74 66.8831C247.74 65.2061 248.381 62.5654 250.303 59.1227C251.902 56.2425 253.423 53.6852 254.944 51.7633L255.022 51.5238C255.022 51.0446 254.303 50.404 253.74 50.404C253.501 50.404 253.339 50.4873 253.261 50.6436L252.141 52.3258C250.621 50.1644 249.1 49.2842 247.339 49.2842C246.86 49.2842 246.303 49.2842 245.824 49.4456C240.542 50.8831 237.746 55.3623 237.746 58.6436C237.746 60.6436 238.782 62.1644 241.022 62.1644C242.704 62.1644 245.1 61.2842 248.22 58.9665C246.944 61.6019 246.22 64.5654 246.22 66.805C246.22 69.0446 246.944 70.6436 248.782 70.6436H249.022ZM240.944 61.1227C239.824 61.1227 239.183 60.5654 239.183 59.5238C239.183 58.404 239.824 56.8831 241.423 54.805C243.105 52.5654 245.261 50.5654 247.423 50.5654C248.782 50.5654 250.141 51.3675 251.339 53.4456C247.261 58.7269 243.105 61.1227 240.944 61.1227Z" fill="black"/>
</svg>
