<svg width="221" height="97" viewBox="0 0 221 97" fill="none" xmlns="http://www.w3.org/2000/svg">
<path d="M123.427 96.9951C127.349 96.9951 131.427 95.8753 135.75 93.0785C136.068 92.917 136.146 92.6774 136.146 92.516C136.146 92.2764 135.99 92.1201 135.75 92.1201L135.349 92.2764C131.266 94.8389 127.589 95.8753 123.99 95.8753C107.193 95.8753 93.1146 72.7607 61.9167 71.641C68.2344 64.2816 75.3542 52.8441 84.9531 37.167C95.5938 19.7243 104.151 9.72949 109.911 4.44824C110.63 4.28678 111.271 4.0472 111.911 3.80762C116.792 1.96907 119.188 -0.348634 119.188 -1.55176C119.188 -2.03093 118.792 -2.34863 117.99 -2.34863C115.188 -2.34863 107.99 3.16699 107.432 3.64616C103.99 4.6097 100.234 5.01074 96.1511 5.01074C86.9531 5.01074 76.1563 3.01074 64.3177 1.25033C52.7969 -0.51009 41.2813 -2.19238 31.1198 -2.19238C16.2448 -2.19238 4.48438 1.48991 0.5625 14.4482L0.484375 14.8493C0.484375 15.0889 0.645834 15.2451 0.723959 15.2451C0.963542 15.2451 1.20312 15.0889 1.28646 14.6097C4.88542 2.68783 16.0833 -0.749674 30.3229 -0.749674C50.3177 -0.749674 76.3125 6.13053 95.2708 6.13053C98.9531 6.13053 102.391 5.89095 105.432 5.25033C87.7552 22.766 75.7552 52.8441 59.4375 71.7191C51.1198 72.1982 42.9583 75.7972 42.9583 80.1201C42.9583 80.6774 43.1198 81.1566 43.3594 81.7191C43.6771 82.4378 44.401 82.917 45.599 82.917C48.3958 82.917 53.5156 80.4378 60.0781 73.5576H60.7188C89.9948 73.5576 105.51 96.9951 123.427 96.9951ZM45.3594 81.641H45.2813C44.6406 81.641 44.401 81.4014 44.401 80.917C44.401 79.0785 49.1979 74.2816 57.6771 73.5576C52.3177 79.318 48.7969 81.4795 45.3594 81.641ZM112.948 1.89095L117.271 -0.749674C116.552 -0.030925 115.188 0.927408 112.948 1.89095Z" fill="black"/>
<path d="M94.3848 62.5212C97.5046 62.5212 102.067 55.7243 102.067 50.6045V50.5212C104.307 51.641 106.786 52.1201 109.343 52.1201C113.822 52.1201 118.385 50.7607 121.583 49.2451C121.822 49.0837 121.984 48.9222 121.984 48.8441C121.984 48.6826 121.822 48.6045 121.661 48.6045L121.343 48.6826C118.541 50.042 113.984 51.2451 109.744 51.2451C107.505 51.2451 105.265 50.9222 103.505 50.042C100.546 48.5212 102.786 49.1618 100.708 46.443C100.145 45.641 99.265 45.3232 98.5462 45.3232C97.7441 45.3232 97.1035 45.7243 97.1035 46.3649C97.1035 46.8441 97.4264 47.4847 98.3066 48.2035C96.8639 49.5628 95.265 51.8024 94.1452 54.2035C93.3483 55.7243 92.3848 58.1201 92.3848 59.9639C92.3848 60.7607 92.5462 61.4795 93.0254 61.9639C93.4264 62.3597 93.9056 62.5212 94.3848 62.5212ZM99.8275 47.5628C99.3431 47.2451 99.0254 47.0055 98.7858 46.6826L99.8275 47.5628ZM94.8639 61.3232C94.6243 61.3232 94.4681 61.2399 94.3066 61.1618C94.2285 61.0837 94.1452 60.8441 94.1452 60.443C94.1452 58.5993 95.7441 53.641 99.9837 49.4014L100.624 49.8024L100.786 50.9222C100.786 54.6826 97.1035 61.3232 94.8639 61.3232Z" fill="black"/>
<path d="M114.783 70.9222C120.221 70.9222 127.898 67.1618 131.658 58.1201C139.58 55.9639 143.898 53.4847 149.497 49.0055C149.658 48.9222 149.658 48.7607 149.658 48.6826C149.658 48.6045 149.575 48.5212 149.419 48.5212L149.096 48.6045C143.419 52.9222 137.82 55.641 132.059 57.1618C132.299 56.2816 132.46 55.4847 132.46 54.6826C132.46 51.8805 130.861 50.1253 128.221 50.1253C125.82 50.1253 122.539 51.641 118.861 55.4014L123.742 48.2035C132.138 42.8441 140.94 34.2868 147.335 26.6878C148.856 24.9274 157.815 13.7295 157.815 9.48991C157.815 8.37012 157.096 7.88574 156.138 7.88574C146.377 7.88574 115.981 55.641 112.304 62.443C110.065 63.4014 108.945 65.0837 108.945 66.7607C108.945 69.0785 111.023 70.9222 114.783 70.9222ZM113.981 69.4014C111.263 69.4014 109.981 68.042 109.981 66.5212C109.981 65.3232 110.861 64.042 112.544 63.3232C112.94 63.641 113.184 63.7191 113.502 63.7191C114.059 63.7191 114.46 63.1618 114.783 62.5993L128.861 58.9222C126.143 64.2035 122.622 67.2399 117.263 68.8389C115.981 69.2399 114.861 69.4014 113.981 69.4014ZM115.664 61.2399C120.299 53.8805 124.221 52.1201 127.101 51.4014L128.221 51.2451C129.658 51.2451 130.221 52.2816 130.221 53.7243C130.221 54.8441 129.898 56.3597 129.341 57.7243L115.664 61.2399ZM124.94 46.2816C127.898 42.2035 151.179 8.92741 156.216 8.92741C156.695 9.00553 156.934 9.00553 156.934 9.64616C156.934 13.8857 139.419 36.1253 124.94 46.2816Z" fill="black"/>
<path d="M141.495 64.3594L141.896 64.2031C144.458 61.6406 150.453 55.0833 155.896 51.9635V53.8021C155.896 57.8021 156.614 63.4792 161.656 63.6406H161.812C167.812 63.6406 179.25 52.8437 184.849 49.0833C185.01 49.0052 185.088 48.9219 185.088 48.8438C185.088 48.6823 184.932 48.6042 184.771 48.6042H184.531C179.651 51.3229 167.974 62.5208 162.135 62.5208C159.172 62.4427 158.135 58.9219 158.135 55.401C158.135 54.0417 158.297 52.6823 158.536 51.5625L158.614 51C158.614 50.4427 158.297 50.3646 158.052 50.2031C157.812 50.0417 157.573 50.0417 157.255 50.0417C153.495 50.0417 144.375 60.0417 142.219 62.5208C144.614 57.724 148.213 52.4427 151.417 48.125C151.495 48.0417 151.573 47.8854 151.573 47.8021C151.573 47.401 151.015 46.9219 150.536 46.9219C150.297 46.9219 150.135 47.0052 149.896 47.2448C149.417 47.8021 146.536 52.2031 143.818 56.8437C142.135 59.6406 141.578 61.4792 140.854 63.401V63.6406C140.854 64.0417 141.177 64.3594 141.495 64.3594Z" fill="black"/>
<path d="M191.728 67.4014C197.566 67.2399 210.847 53.1618 220.285 49.2451C220.446 49.0837 220.603 48.9222 220.603 48.8441C220.603 48.6826 220.446 48.5212 220.202 48.5212L219.884 48.6045C212.686 50.6045 197.249 66.2035 191.967 66.2035H191.806C191.009 66.1201 190.446 65.2399 190.446 63.641C190.446 61.9639 191.087 59.3232 193.009 55.8805C194.608 53.0003 196.129 50.443 197.65 48.5212L197.728 48.2816C197.728 47.8024 197.009 47.1618 196.446 47.1618C196.207 47.1618 196.045 47.2451 195.967 47.4014L194.847 49.0837C193.327 46.9222 191.806 46.042 190.045 46.042C189.566 46.042 189.009 46.042 188.53 46.2035C183.249 47.641 180.452 52.1201 180.452 55.4014C180.452 57.4014 181.488 58.9222 183.728 58.9222C185.41 58.9222 187.806 58.042 190.926 55.7243C189.65 58.3597 188.926 61.3232 188.926 63.5628C188.926 65.8024 189.65 67.4014 191.488 67.4014H191.728ZM183.65 57.8805C182.53 57.8805 181.889 57.3232 181.889 56.2816C181.889 55.1618 182.53 53.641 184.129 51.5628C185.811 49.3232 187.967 47.3232 190.129 47.3232C191.488 47.3232 192.847 48.1253 194.045 50.2035C189.967 55.4847 185.811 57.8805 183.65 57.8805Z" fill="black"/>
</svg>
