<svg width="60" height="48" viewBox="0 0 60 48" fill="none" xmlns="http://www.w3.org/2000/svg">
<mask id="mask0_38_2985" style="mask-type:luminance" maskUnits="userSpaceOnUse" x="0" y="0" width="60" height="4">
<path d="M0.739746 0.328125H59.7345V3.91146H0.739746V0.328125Z" fill="white"/>
</mask>
<g mask="url(#mask0_38_2985)">
<path d="M57.9845 3.85938H2.49495C1.5262 3.85938 0.739746 3.06771 0.739746 2.09375C0.739746 1.11979 1.5262 0.328125 2.49495 0.328125H57.9845C58.9533 0.328125 59.7345 1.11979 59.7345 2.09375C59.7345 3.06771 58.9533 3.85938 57.9845 3.85938Z" fill="black"/>
</g>
<mask id="mask1_38_2985" style="mask-type:luminance" maskUnits="userSpaceOnUse" x="0" y="22" width="60" height="4">
<path d="M0.739746 22H59.7345V25.651H0.739746V22Z" fill="white"/>
</mask>
<g mask="url(#mask1_38_2985)">
<path d="M57.9845 25.5723H2.49495C1.5262 25.5723 0.739746 24.7806 0.739746 23.8066C0.739746 22.8327 1.5262 22.041 2.49495 22.041H57.9845C58.9533 22.041 59.7345 22.8327 59.7345 23.8066C59.7345 24.7806 58.9533 25.5723 57.9845 25.5723Z" fill="black"/>
</g>
<mask id="mask2_38_2985" style="mask-type:luminance" maskUnits="userSpaceOnUse" x="0" y="43" width="60" height="5">
<path d="M0.739746 43.7246H59.7345V47.2871H0.739746V43.7246Z" fill="white"/>
</mask>
<g mask="url(#mask2_38_2985)">
<path d="M57.9845 47.2871H2.49495C1.5262 47.2871 0.739746 46.4954 0.739746 45.5215C0.739746 44.5475 1.5262 43.7559 2.49495 43.7559H57.9845C58.9533 43.7559 59.7345 44.5475 59.7345 45.5215C59.7345 46.4954 58.9533 47.2871 57.9845 47.2871Z" fill="black"/>
</g>
</svg>
