<svg width="305" height="115" viewBox="0 0 305 115" fill="none" xmlns="http://www.w3.org/2000/svg">
<path d="M115.156 99.1563C119.078 99.1563 124.198 96.4375 129.797 90.6771C129.958 90.4375 130.036 90.276 130.036 90.1198C130.036 89.9583 129.875 89.7969 129.719 89.7969C129.557 89.7969 129.318 89.8802 129.156 90.0365C123.156 95.6354 118.76 97.5573 115.719 97.5573C111.797 97.5573 109.958 94.3594 109.641 91.6354C109.557 91 109.479 90.276 109.479 89.5573C109.479 65.9583 147.474 15.4063 168.115 -8.03125C168.354 -8.34896 168.432 -8.58854 168.432 -8.75C168.432 -9.22917 167.87 -9.46875 167.391 -9.46875H167.234C152.755 -6.98958 102.76 30.2865 87.8021 43.4844C91.5625 38.2865 123.958 1.25 130.917 -3.3125C130.995 -3.39063 131.078 -3.55208 131.078 -3.63021C131.078 -4.10937 130.599 -4.58854 130.036 -4.58854H129.875C104.12 2.28646 46.2865 61.4792 15.1719 76.3594C11.4896 78.1198 8.05208 79.401 5.49479 79.401C2.85417 79.401 1.17187 78.0417 1.17187 74.3594C1.17187 73.6406 1.25521 72.8385 1.41146 71.8802V71.6406C1.41146 71.401 1.33333 71.2396 1.17187 71.2396C1.01563 71.2396 0.854166 71.4792 0.770833 71.8802C0.53125 72.9219 0.453125 73.8021 0.453125 74.6771C0.453125 77.7969 1.8125 79.7188 3.8125 80.1198C4.29167 80.1979 4.85417 80.2813 5.49479 80.2813C16.4531 80.2813 38.2865 63.2396 52.7656 51.8021C79.8021 30.3646 110.76 3.89063 127.078 -2.34896C105.24 16.9271 90.4427 36.8438 82.4427 48.3646C77.724 52.8438 74.9219 56.4427 74.9219 58.1198V58.2031C74.9219 58.7604 75.1615 59.3229 75.6458 59.3229C75.8021 59.3229 76.0417 59.2396 76.2813 59.0833L84.3646 48.2031C88.9219 43.9635 94.5208 39.3229 101.719 33.724C115.641 22.7656 150.917 -2.75 165.313 -7.63021C139.875 22.125 122.359 46.5208 114.359 63.7188C109.641 74.0417 107.557 82.276 107.557 88.1979C107.557 95.3958 110.521 99.1563 115.156 99.1563ZM76.6042 56.7604C77.0052 56.0417 77.4844 55.2396 78.3646 54.2813L76.6042 56.7604Z" fill="black"/>
<path d="M107.388 114.036C120.586 114.036 140.185 73.6406 146.263 62.1198C154.102 57.1615 158.982 54.7604 168.263 49.3229C168.581 49.1615 168.664 49.0052 168.664 48.8438C168.664 48.6823 168.581 48.6042 168.425 48.6042C168.263 48.6042 168.102 48.6042 167.94 48.7604C158.982 53.724 154.904 55.5625 147.065 60.3594L153.065 48.6042L153.143 48.2813C153.143 47.9635 152.742 47.5625 152.425 47.5625C152.263 47.5625 152.107 47.6406 151.945 47.8021C144.586 55 138.826 60.2031 136.268 60.2031C135.628 60.2031 135.227 59.8802 134.987 59.2396C134.909 59.0833 134.909 58.8437 134.909 58.5208C134.909 55.4844 139.227 48.2813 140.748 46.5208L140.904 46.2031C140.904 45.8854 140.508 45.6406 140.107 45.6406C139.867 45.6406 139.706 45.724 139.544 45.8854C135.149 50.8438 133.149 55.1615 133.149 57.9635C133.149 58.7604 133.388 59.4792 133.706 59.9635C134.185 60.7604 134.987 61.0833 135.867 61.0833C139.466 61.0833 145.466 55.5625 149.784 51.1615C147.867 55.0833 146.263 58.2813 144.347 61.8802C138.586 65 121.706 75.0781 109.951 89.2396C105.628 94.5156 101.31 102.115 101.31 107.557C101.31 110.438 102.513 112.677 105.472 113.714C106.112 113.953 106.748 114.036 107.388 114.036ZM107.472 112.594C106.909 112.594 106.352 112.516 105.789 112.354C103.55 111.557 102.669 109.875 102.669 107.635C102.669 102.438 107.472 94.599 111.789 89.3958C119.466 80.2813 131.55 70.6823 143.383 63.8802C138.029 74.0417 119.388 112.594 107.472 112.594Z" fill="black"/>
<path d="M167.3 65.479C173.461 65.479 189.935 52.6821 194.737 49.3228C195.055 49.1613 195.138 48.9217 195.138 48.8436C195.138 48.6821 195.055 48.6821 194.899 48.6821C194.737 48.6821 194.576 48.6821 194.336 48.8436C189.935 51.88 172.982 64.1196 167.539 64.1196C167.222 64.1196 166.982 64.1196 166.743 64.0415C166.019 63.8019 165.779 63.4009 165.779 62.6821C165.779 60.1196 170.18 54.5207 170.18 50.8436C170.18 49.9634 169.94 49.1613 169.3 48.604C170.498 47.8853 172.982 45.1613 172.982 43.9634C172.982 43.6457 172.821 43.4842 172.498 43.4009L172.102 43.3228C170.102 43.3228 167.461 46.2811 167.461 48.203C167.461 48.7603 167.701 49.2446 168.258 49.5623C168.581 49.8019 168.743 50.203 168.743 50.7603C168.743 51.2446 168.581 51.88 168.42 52.4425C167.701 54.6821 164.581 59.6405 164.581 62.7603C164.581 63.9582 165.06 64.9217 166.341 65.3228L167.3 65.479ZM168.899 47.8853V47.8019C168.899 47.2446 170.821 45.005 171.701 44.5207C171.779 44.5207 171.779 44.5207 171.779 44.604C171.779 44.9217 170.102 47.2446 168.899 47.8853Z" fill="black"/>
<path d="M202.172 41.646C202.573 41.646 202.974 41.5627 203.136 41.245C203.292 41.0054 203.375 40.7658 203.375 40.5262C203.375 40.1252 203.136 39.8022 202.896 39.5627C202.656 39.245 202.255 39.0054 201.776 39.0054C201.453 39.0054 201.214 39.0835 200.896 39.4064C200.735 39.646 200.573 40.0418 200.573 40.3647C200.573 40.7658 200.813 41.1616 201.136 41.4064C201.375 41.5627 201.776 41.646 202.172 41.646ZM193.537 62.7606C199.453 62.7606 212.094 51.1616 217.052 49.3231C217.453 49.245 217.615 49.0054 217.615 48.8439C217.615 48.6825 217.453 48.6043 217.214 48.6043L216.813 48.6825C211.854 50.4429 199.375 61.4793 194.016 61.4793C193.537 61.4793 193.136 61.4012 192.818 61.2397C192.016 60.8439 191.615 60.0418 191.615 58.922C191.615 55.1616 196.333 48.1252 199.375 44.6825L199.537 44.3647C199.537 43.8856 198.974 43.3231 198.417 43.3231C198.255 43.3231 198.094 43.4012 197.932 43.5627C195.776 45.9637 190.255 53.9637 190.255 58.922C190.255 60.4429 190.818 61.7189 192.094 62.4429C192.495 62.6825 193.057 62.7606 193.537 62.7606Z" fill="black"/>
<path d="M224.33 67.4009C230.168 67.2394 243.45 53.1613 252.887 49.2446C253.049 49.0832 253.205 48.9217 253.205 48.8436C253.205 48.6821 253.049 48.5207 252.804 48.5207L252.486 48.604C245.288 50.604 229.851 66.203 224.569 66.203H224.408C223.611 66.1196 223.049 65.2394 223.049 63.6405C223.049 61.9634 223.689 59.3228 225.611 55.88C227.21 52.9998 228.731 50.4425 230.252 48.5207L230.33 48.2811C230.33 47.8019 229.611 47.1613 229.049 47.1613C228.809 47.1613 228.647 47.2446 228.569 47.4009L227.45 49.0832C225.929 46.9217 224.408 46.0415 222.647 46.0415C222.168 46.0415 221.611 46.0415 221.132 46.203C215.851 47.6405 213.054 52.1196 213.054 55.4009C213.054 57.4009 214.09 58.9217 216.33 58.9217C218.012 58.9217 220.408 58.0415 223.528 55.7238C222.252 58.3592 221.528 61.3228 221.528 63.5623C221.528 65.8019 222.252 67.4009 224.09 67.4009H224.33ZM216.252 57.88C215.132 57.88 214.491 57.3228 214.491 56.2811C214.491 55.1613 215.132 53.6405 216.731 51.5623C218.413 49.3228 220.569 47.3228 222.731 47.3228C224.09 47.3228 225.45 48.1248 226.647 50.203C222.569 55.4842 218.413 57.88 216.252 57.88Z" fill="black"/>
<path d="M243.126 65.5627C243.366 65.5627 243.683 65.4793 243.767 65.3231C245.767 63.1616 257.605 52.6825 263.282 50.2814C261.204 53.5627 259.282 60.12 259.282 62.7606C259.282 63.4793 259.366 63.8804 259.761 63.8804C259.923 63.8804 260.241 63.7189 260.642 63.2397C260.642 63.2397 267.683 55.4012 272.324 53.7241V54.922C272.324 62.2033 274.402 64.4429 277.438 65.0002L278.319 65.0835C285.678 65.0835 299.517 51.6408 304.319 49.1616C304.558 49.0835 304.636 48.922 304.636 48.8439C304.636 48.7606 304.558 48.6825 304.475 48.6825L304.079 48.7606C299.199 50.922 285.121 63.9585 279.043 63.9585C278.558 63.9585 278.162 63.8804 277.761 63.7189C275.683 62.8387 274.319 60.7606 274.319 53.9637V53.3231C274.319 52.6043 274.001 52.2814 273.36 52.2814C270.72 52.2814 263.043 58.6825 261.204 61.7189C262.725 57.6408 264.563 52.8439 266.402 48.8439C266.402 48.2814 266.084 48.0418 265.6 48.0418C261.923 48.0418 248.006 59.8022 245.204 62.5991C247.605 58.0418 252.162 51.7241 255.444 47.9637C255.605 47.8856 255.605 47.7241 255.605 47.5627C255.605 47.0835 254.881 46.4429 254.402 46.4429C254.246 46.4429 254.084 46.521 253.923 46.6825C250.084 51.0002 244.563 59.7241 242.647 64.5991C242.563 64.7606 242.563 64.922 242.563 65.0835C242.563 65.4012 242.803 65.5627 243.126 65.5627Z" fill="black"/>
</svg>
