<svg width="274" height="123" viewBox="0 0 274 123" fill="none" xmlns="http://www.w3.org/2000/svg">
<path d="M5.28125 97.1094C18.7187 97.1094 51.4323 60.7917 56.3125 55.5156C67.9115 42.7969 90.3906 15.8385 105.667 11.7604C90.4688 31.8385 76.2292 64.7917 76.2292 89.6719V90.4688C76.3125 90.9479 76.7083 91.1094 77.1094 91.1094C77.5885 91.1094 78.2292 90.7917 78.3906 90.4688L79.4323 88.5521C91.6667 65.2708 116.547 18.1615 145.344 1.28125C145.583 1.11979 145.74 0.880208 145.74 0.640625C145.74 0.322917 145.422 0 145.104 0C144.943 0 144.859 0 144.703 0.0833333C115.823 17.0417 90.2292 64.5521 77.75 88.151C78.4688 65.2708 98.8698 22 109.104 10.5625L109.188 10.401C109.188 10.0781 108.547 9.92188 107.906 9.92188L107.188 10C91.349 12.6406 67.0313 41.9167 55.3542 54.6354C50.9531 59.3542 17.6771 95.5885 5.35937 95.5885C3.19792 95.5885 1.68229 94.5521 1.04167 91.9896C0.958333 91.6719 0.802083 91.5885 0.640625 91.5885C0.317708 91.5885 0 91.9115 0 92.3906V92.5521C0.802083 95.75 2.71875 97.1094 5.28125 97.1094Z" fill="black"/>
<path d="M79.1006 122.948C92.2985 122.948 111.897 82.5518 117.976 71.0309C125.814 66.0726 130.694 63.6715 139.976 58.234C140.293 58.0726 140.377 57.9163 140.377 57.7549C140.377 57.5934 140.293 57.5153 140.137 57.5153C139.976 57.5153 139.814 57.5153 139.653 57.6715C130.694 62.6351 126.616 64.4736 118.778 69.2705L124.778 57.5153L124.856 57.1924C124.856 56.8747 124.455 56.4736 124.137 56.4736C123.976 56.4736 123.819 56.5518 123.658 56.7132C116.299 63.9111 110.538 69.1143 107.981 69.1143C107.34 69.1143 106.939 68.7913 106.7 68.1507C106.621 67.9945 106.621 67.7549 106.621 67.432C106.621 64.3955 110.939 57.1924 112.46 55.432L112.616 55.1143C112.616 54.7965 112.22 54.5518 111.819 54.5518C111.58 54.5518 111.418 54.6351 111.257 54.7965C106.861 59.7549 104.861 64.0726 104.861 66.8747C104.861 67.6715 105.101 68.3903 105.418 68.8747C105.897 69.6715 106.7 69.9945 107.58 69.9945C111.179 69.9945 117.179 64.4736 121.496 60.0726C119.58 63.9945 117.976 67.1924 116.059 70.7913C110.299 73.9111 93.4183 83.9893 81.6631 98.1507C77.3402 103.427 73.0225 111.026 73.0225 116.468C73.0225 119.349 74.2256 121.588 77.1839 122.625C77.8245 122.864 78.46 122.948 79.1006 122.948ZM79.1839 121.505C78.6214 121.505 78.0641 121.427 77.5016 121.265C75.262 120.468 74.3818 118.786 74.3818 116.547C74.3818 111.349 79.1839 103.51 83.5016 98.307C91.1787 89.1924 103.262 79.5934 115.095 72.7913C109.741 82.9528 91.1006 121.505 79.1839 121.505Z" fill="black"/>
<path d="M135.731 83.1927C143.653 83.1927 163.012 61.1927 170.767 58.2344C171.09 58.1563 171.246 57.9167 171.246 57.7552C171.246 57.5938 171.09 57.4323 170.851 57.4323L170.45 57.5156C160.851 61.7552 144.772 81.4323 136.215 81.5938C134.856 81.5938 134.293 80.5521 134.293 78.8698C134.293 72.8698 141.09 59.1927 141.97 58.0729C148.45 52.1563 180.049 26.0781 180.049 18.4792C180.049 18 179.965 17.599 179.647 17.2813C179.408 16.9583 179.007 16.7969 178.45 16.7969C173.246 16.7969 156.533 30.7188 144.851 48.7135C140.215 55.9167 132.054 70.3906 132.054 78.151C132.054 80.3906 132.694 82.0729 134.293 82.8698C134.772 83.1094 135.252 83.1927 135.731 83.1927ZM143.012 55.9948C149.569 44.9583 158.533 33.8385 166.851 26.1563C173.007 20.4792 177.007 18.3177 178.366 18.3177C178.606 18.3177 178.689 18.401 178.767 18.4792L178.845 18.7969C178.845 20.7188 173.168 27.599 166.689 34.0781C159.012 41.7552 149.809 49.8333 143.012 55.9948Z" fill="black"/>
<path d="M171.167 71.0311C177.646 71.0311 188.683 63.9946 196.443 58.0728C196.683 57.9165 196.761 57.755 196.761 57.5936C196.761 57.5155 196.605 57.354 196.443 57.354L196.126 57.5155C188.844 62.8748 177.964 69.6717 171.964 69.6717H171.568C169.725 69.5936 168.365 68.6353 168.365 66.4738C168.365 65.2707 168.844 63.5936 169.886 61.5155C176.365 60.3123 179.886 57.0363 179.886 55.0363C179.886 54.2342 178.928 53.6769 177.485 53.6769C175.006 53.6769 171.089 55.4321 167.886 61.0311C167.006 62.6353 166.365 64.6353 166.365 66.3905C166.365 68.2342 167.006 69.8332 168.688 70.5519C169.407 70.8748 170.209 71.0311 171.167 71.0311ZM170.449 60.3957C173.167 56.1561 176.365 54.7967 177.964 54.7967C178.365 54.7967 178.688 54.8748 178.844 55.0363C179.006 55.1925 179.006 55.354 179.006 55.5155C179.006 57.0363 174.287 60.0728 170.449 60.3957ZM182.928 51.755C183.167 51.755 183.485 51.5936 183.485 51.4373L183.407 51.354C182.126 50.0728 179.407 47.9946 177.407 46.7967L177.084 46.7134C176.443 46.7134 175.485 47.354 175.485 47.755C175.485 47.8332 175.568 47.9165 175.646 47.9946C177.964 49.1144 180.204 50.5571 182.527 51.6769L182.928 51.755Z" fill="black"/>
<path d="M186.684 74.4738C186.923 74.4738 187.241 74.3905 187.324 74.2342C189.324 72.0728 201.163 61.5936 206.84 59.1925C204.762 62.4738 202.84 69.0311 202.84 71.6717C202.84 72.3905 202.923 72.7915 203.319 72.7915C203.481 72.7915 203.798 72.63 204.199 72.1509C204.199 72.1509 211.241 64.3123 215.882 62.6353V63.8332C215.882 71.1144 217.96 73.354 220.996 73.9113L221.877 73.9946C229.236 73.9946 243.074 60.5519 247.877 58.0728C248.116 57.9946 248.194 57.8332 248.194 57.755C248.194 57.6717 248.116 57.5936 248.033 57.5936L247.637 57.6717C242.757 59.8332 228.679 72.8696 222.601 72.8696C222.116 72.8696 221.72 72.7915 221.319 72.63C219.241 71.7498 217.877 69.6717 217.877 62.8748V62.2342C217.877 61.5155 217.559 61.1925 216.918 61.1925C214.278 61.1925 206.601 67.5936 204.762 70.63C206.283 66.5519 208.121 61.755 209.96 57.755C209.96 57.1925 209.642 56.953 209.158 56.953C205.481 56.953 191.564 68.7134 188.762 71.5103C191.163 66.953 195.72 60.6353 199.002 56.8748C199.163 56.7967 199.163 56.6353 199.163 56.4738C199.163 55.9946 198.439 55.354 197.96 55.354C197.804 55.354 197.642 55.4321 197.481 55.5936C193.642 59.9113 188.121 68.6353 186.205 73.5103C186.121 73.6717 186.121 73.8332 186.121 73.9946C186.121 74.3123 186.361 74.4738 186.684 74.4738Z" fill="black"/>
<path d="M247.874 71.1924C254.27 71.1924 265.468 64.1507 273.229 58.234C273.468 58.0726 273.546 57.9163 273.546 57.7549C273.546 57.6715 273.39 57.5153 273.229 57.5153L272.827 57.6715C265.63 63.0309 254.749 69.833 248.749 69.833H248.354C246.51 69.7549 245.15 68.7913 245.15 66.5518C245.15 65.3538 245.551 63.7549 246.593 61.6715C253.15 60.3955 256.671 57.1143 256.671 55.1143C256.671 54.3122 255.713 53.7549 254.27 53.7549C251.791 53.7549 247.874 55.5153 244.671 61.1924C243.791 62.7913 243.15 64.7132 243.15 66.5518C243.15 68.3903 243.791 69.9945 245.473 70.7132C246.192 71.0309 246.994 71.1924 247.874 71.1924ZM247.234 60.4736C249.952 56.3955 253.072 54.8747 254.671 54.8747C255.072 54.8747 255.39 55.0361 255.551 55.1924C255.713 55.3538 255.791 55.5153 255.791 55.6768C255.791 57.1924 250.989 60.1559 247.234 60.4736Z" fill="black"/>
</svg>
