<svg width="438" height="76" viewBox="0 0 438 76" fill="none" xmlns="http://www.w3.org/2000/svg">
<mask id="mask0_26_95" style="mask-type:luminance" maskUnits="userSpaceOnUse" x="417" y="16" width="21" height="20">
<path d="M417.333 16.2083H437.333V35.3333H417.333V16.2083Z" fill="white"/>
</mask>
<g mask="url(#mask0_26_95)">
<path d="M418.474 25.4321C418.474 20.3332 422.646 16.1978 427.786 16.1978C432.927 16.1978 437.094 20.3332 437.094 25.4321C437.094 30.5259 432.927 34.6613 427.786 34.6613C422.646 34.6613 418.474 30.5259 418.474 25.4321Z" fill="#0F0F0F"/>
</g>
<mask id="mask1_26_95" style="mask-type:luminance" maskUnits="userSpaceOnUse" x="0" y="23" width="431" height="53">
<path d="M0.026001 23.3333H430.667V75.2083H0.026001V23.3333Z" fill="white"/>
</mask>
<g mask="url(#mask1_26_95)">
<path d="M0.963501 75.2134H380.38L429.437 26.9113L426.833 24.3071L378.854 71.5467H0.963501V75.2134Z" fill="#0F0F0F"/>
</g>
<path d="M21.0394 30.6436L10.0759 16.8311C13.529 16.3676 18.753 14.6853 18.753 8.66447C18.753 2.22697 11.753 1.34155 9.37276 1.34155C7.0863 1.34155 0.508179 1.34155 0.508179 1.34155V30.6436H3.82068V17.0186H5.96651L16.7946 30.6436H21.0394ZM3.82068 2.08634H7.60193C12.3623 2.08634 15.2061 4.04468 15.2061 9.18009C15.2061 14.4041 11.8467 16.2738 6.38839 16.2738H3.82068V2.08634Z" fill="black"/>
<path d="M36.946 1.34155H24.8627V30.6436H34.7533C36.1543 30.6436 51.7845 31.3416 51.7845 15.5238C51.7845 2.74259 42.3627 1.34155 36.946 1.34155ZM34.6595 29.8988H28.1752V2.13322H35.1752C40.4929 2.13322 48.3314 4.09155 48.3314 15.5238C48.3314 26.9093 41.0554 29.8988 34.6595 29.8988Z" fill="black"/>
<path d="M80.7575 1.34155L69.7002 26.2113L59.0595 1.34155H55.471L68.2523 31.2478H68.5335L81.8304 1.34155H80.7575Z" fill="black"/>
<path d="M117.991 1.34155H96.6217V2.08634H105.627V30.6436H108.986V2.08634H117.991V1.34155Z" fill="black"/>
<path d="M136.653 2.08634V1.34155H121.814V30.6436H136.653V29.8988H125.127V15.7113H135.392V14.9666H125.127V2.08634H136.653Z" fill="black"/>
<path d="M144.209 29.8988V1.34155H140.896V30.6436H155.876V29.8988H144.209Z" fill="black"/>
<path d="M174.771 2.08634V1.34155H159.932V30.6436H174.771V29.8988H163.245V15.7113H173.51V14.9666H163.245V2.08634H174.771Z" fill="black"/>
<path d="M187.879 1.34155C185.593 1.34155 179.015 1.34155 179.015 1.34155V30.6436H182.327V17.0186H185.686C187.087 17.0186 197.259 17.0655 197.259 8.66447C197.259 2.22697 190.259 1.34155 187.879 1.34155ZM184.895 16.2738H182.327V2.08634H186.108C190.869 2.08634 193.712 4.04468 193.712 9.18009C193.712 14.4041 190.353 16.2738 184.895 16.2738Z" fill="black"/>
<path d="M218.487 1.34155V14.9666H204.769V1.34155H201.456V30.6436H204.769V15.7113H218.487V30.6436H221.847V1.34155H218.487Z" fill="black"/>
<path d="M242.188 0.779053C233.792 0.779053 226.135 5.25822 226.135 16.0863C226.135 28.5447 236.307 31.4822 242.188 31.4822C248.021 31.4822 258.24 28.5447 258.24 16.0863C258.24 5.25822 250.542 0.779053 242.188 0.779053ZM242.188 30.6905C236.917 30.6905 229.542 28.3572 229.542 16.0863C229.542 4.00301 237.661 1.52905 242.188 1.52905C246.714 1.52905 254.833 4.00301 254.833 16.0863C254.833 28.3572 247.417 30.6905 242.188 30.6905Z" fill="black"/>
<path d="M286.419 1.34155H285.674V26.1645L262.716 0.779053H262.622V30.6436H263.367V6.10197L286.279 31.4822H286.419V1.34155Z" fill="black"/>
<path d="M291.598 30.6436H294.91V1.34155H291.598V30.6436Z" fill="black"/>
<path d="M331.816 16.0863C331.816 5.25822 324.118 0.779053 315.764 0.779053C307.368 0.779053 299.712 5.25822 299.712 16.0863C299.712 28.5447 309.884 31.4822 315.764 31.4822C317.723 31.4822 320.15 31.1593 322.577 30.2218L327.618 36.5707H331.816L325.561 28.7322C329.061 26.4457 331.816 22.5707 331.816 16.0863ZM315.764 30.6905C310.493 30.6905 303.118 28.3572 303.118 16.0863C303.118 4.00301 311.238 1.52905 315.764 1.52905C320.29 1.52905 328.41 4.00301 328.41 16.0863C328.41 21.7791 326.822 25.3259 324.582 27.5186L320.665 22.5707H316.467L321.879 29.3832C319.874 30.4093 317.676 30.6905 315.764 30.6905Z" fill="black"/>
<path d="M357.522 1.34155V19.3988C357.522 28.3103 352.996 30.2686 347.678 30.2686C339.793 30.2686 339.371 23.1332 339.371 19.8207V1.34155H336.058V19.8207C336.058 29.3363 341.47 31.4822 346.975 31.4822C354.444 31.4822 358.314 27.5186 358.314 19.8207V1.34155H357.522Z" fill="black"/>
<path d="M377.678 2.08634V1.34155H362.84V30.6436H377.678V29.8988H366.152V15.7113H376.418V14.9666H366.152V2.08634H377.678Z" fill="black"/>
</svg>
