<svg width="675" height="96" viewBox="0 0 675 96" fill="none" xmlns="http://www.w3.org/2000/svg">
<path d="M192.523 50.4664H196.111L183.299 20.6487H183.069L169.788 50.4664H170.814L176.08 38.7268H187.444L192.523 50.4664ZM176.403 37.9351L181.856 25.6799L187.121 37.9351H176.403Z" fill="black"/>
<path d="M221.313 21.2058V39.2371C221.313 48.1381 216.798 50.0912 211.485 50.0912C203.61 50.0912 203.194 42.9662 203.194 39.6589V21.2058H199.886V39.6589C199.886 49.1589 205.287 51.3048 210.787 51.3048C218.24 51.3048 222.11 47.3464 222.11 39.6589V21.2058H221.313Z" fill="black"/>
<path d="M237.666 48.2789V49.3466C237.666 49.3466 240.509 51.6331 245.541 51.6331C250.572 51.6331 255.369 48.1383 255.369 42.9664C255.369 32.5289 240.416 35.6018 240.416 27.1226C240.416 23.8153 242.697 21.1122 246.707 21.1122C250.666 21.1122 253.228 23.0237 253.228 23.0237L253.181 22.0445C253.181 22.0445 250.384 20.3206 246.66 20.3206C242.978 20.3206 237.806 22.5601 237.806 28.3831C237.806 38.8206 252.712 34.9039 252.712 44.1278C252.712 48.6487 249.27 50.8831 245.541 50.8831C241.535 50.8831 239.296 49.5341 237.666 48.2789Z" fill="black"/>
<path d="M276.472 21.2058V34.81H262.779V21.2058H259.467V50.4662H262.779V35.5548H276.472V50.4662H279.832V21.2058H276.472Z" fill="black"/>
<path d="M300.14 20.6487C291.755 20.6487 284.114 25.1226 284.114 35.9299C284.114 48.3674 294.271 51.3049 300.14 51.3049C305.963 51.3049 316.166 48.3674 316.166 35.9299C316.166 25.1226 308.479 20.6487 300.14 20.6487ZM300.14 50.5133C294.875 50.5133 287.515 48.1851 287.515 35.9299C287.515 23.8622 295.62 21.3935 300.14 21.3935C304.661 21.3935 312.765 23.8622 312.765 35.9299C312.765 48.1851 305.359 50.5133 300.14 50.5133Z" fill="black"/>
<path d="M357.584 21.2058L350.225 45.2944L340.579 21.5339H340.392L338.715 25.7266L330.699 45.3881L323.293 21.2058L319.845 21.2527L328.98 51.0704H329.256L339.09 26.7527L348.965 51.0704H349.246L358.423 21.2058H357.584Z" fill="black"/>
<path d="M394.478 50.4662L383.53 36.6746C386.978 36.211 392.197 34.5339 392.197 28.5235C392.197 22.0912 385.207 21.2058 382.832 21.2058C380.551 21.2058 373.978 21.2058 373.978 21.2058V50.4662H377.291V36.8621H379.431L390.238 50.4662H394.478ZM377.291 21.9506H381.061C385.817 21.9506 388.655 23.9089 388.655 29.0339C388.655 34.2527 385.301 36.1173 379.853 36.1173H377.291V21.9506Z" fill="black"/>
<path d="M413.953 20.6487C405.567 20.6487 397.927 25.1226 397.927 35.9299C397.927 48.3674 408.083 51.3049 413.953 51.3049C419.776 51.3049 429.979 48.3674 429.979 35.9299C429.979 25.1226 422.291 20.6487 413.953 20.6487ZM413.953 50.5133C408.687 50.5133 401.328 48.1851 401.328 35.9299C401.328 23.8622 409.432 21.3935 413.953 21.3935C418.474 21.3935 426.578 23.8622 426.578 35.9299C426.578 48.1851 419.172 50.5133 413.953 50.5133Z" fill="black"/>
<path d="M450.011 20.6487C441.626 20.6487 433.985 25.1226 433.985 35.9299C433.985 48.3674 444.141 51.3049 450.011 51.3049C455.834 51.3049 466.037 48.3674 466.037 35.9299C466.037 25.1226 458.35 20.6487 450.011 20.6487ZM450.011 50.5133C444.746 50.5133 437.386 48.1851 437.386 35.9299C437.386 23.8622 445.49 21.3935 450.011 21.3935C454.532 21.3935 462.636 23.8622 462.636 35.9299C462.636 48.1851 455.23 50.5133 450.011 50.5133Z" fill="black"/>
<path d="M500.096 20.6487H500.002L486.908 45.4351L474.002 20.6487H473.861L469.856 50.4664H470.601L473.726 27.357L485.325 49.6747H485.512L497.486 26.982L500.231 50.4664H503.59L500.096 20.6487Z" fill="black"/>
<mask id="mask0_26_213" style="mask-type:luminance" maskUnits="userSpaceOnUse" x="552" y="37" width="20" height="19">
<path d="M552 37.9375H572V56H552V37.9375Z" fill="white"/>
</mask>
<g mask="url(#mask0_26_213)">
<path d="M553.328 46.8386C553.328 41.9167 557.339 37.9324 562.281 37.9324C567.229 37.9324 571.234 41.9167 571.234 46.8386C571.234 51.7501 567.229 55.7397 562.281 55.7397C557.339 55.7397 553.328 51.7501 553.328 46.8386Z" fill="#0F0F0F"/>
</g>
<mask id="mask1_26_213" style="mask-type:luminance" maskUnits="userSpaceOnUse" x="150" y="45" width="414" height="50">
<path d="M150.776 45.3333H564V94.8541H150.776V45.3333Z" fill="white"/>
</mask>
<g mask="url(#mask1_26_213)">
<path d="M151.693 94.8593H516.682L563.87 48.2655L561.37 45.7551L515.214 91.3228H151.693V94.8593Z" fill="#0F0F0F"/>
</g>
</svg>
