<svg version="1.1" id="Layer_1" xmlns="http://www.w3.org/2000/svg" xmlns:xlink="http://www.w3.org/1999/xlink" x="0px" y="0px"
	 width="100%" viewBox="0 0 816 464" enable-background="new 0 0 816 464" xml:space="preserve">
<path fill="#000000" opacity="1.000000" stroke="none" 
	d="
M434.441833,94.312241 
	C444.664337,89.051094 454.858582,85.086433 466.279083,87.417343 
	C472.786530,88.745506 474.090729,92.271637 470.269440,97.839233 
	C465.731873,104.450516 459.225372,108.916611 452.500702,112.936295 
	C435.473907,123.114059 417.858185,132.209167 399.923126,140.673523 
	C397.372559,141.877258 395.621979,143.531387 394.214844,145.941833 
	C378.726562,172.473541 366.463959,200.556839 354.099152,228.606735 
	C343.191254,253.351578 330.916748,277.346985 313.827820,298.567261 
	C290.987946,326.928864 262.041412,344.644714 225.572067,349.032166 
	C207.209824,351.241272 188.890030,351.123077 171.623047,343.348633 
	C143.061279,330.488647 127.808388,307.109283 120.740013,277.524750 
	C118.489296,268.104431 118.573753,258.426575 117.734337,247.896347 
	C78.124161,267.228943 40.223969,287.837982 15.126312,325.882111 
	C12.154378,322.899811 14.086482,321.206787 15.144737,319.556915 
	C26.962404,301.132263 43.059845,287.034271 60.779724,274.598907 
	C77.058144,263.175110 94.401619,253.562973 112.406082,245.215347 
	C117.171371,243.005966 119.033752,239.968964 119.593483,235.150620 
	C122.367851,211.268005 132.629990,190.861023 149.437531,173.924103 
	C169.336456,153.872025 193.402618,143.123016 221.943939,145.911896 
	C244.833145,148.148499 263.881134,158.562241 277.423859,177.634583 
	C279.921936,181.152664 281.925110,181.962036 285.960754,180.471405 
	C318.608063,168.412659 351.264191,156.388245 383.358337,142.893234 
	C387.206940,141.274963 390.037872,138.913803 392.349274,135.403625 
	C403.303101,118.768745 416.883423,104.751106 434.441833,94.312241 
M146.186676,316.309967 
	C160.205978,332.221039 177.663757,340.816803 198.977661,341.911987 
	C244.295547,344.240540 280.804138,327.719482 308.509796,291.693787 
	C321.787689,274.428589 332.123169,255.447281 341.626312,235.964493 
	C355.054962,208.433868 366.660492,180.021286 381.651428,153.242691 
	C382.561737,151.616577 384.172791,150.169312 383.905487,147.860901 
	C383.308594,147.975357 382.817810,147.995651 382.383881,148.163223 
	C350.401245,160.513214 318.433105,172.900925 286.428772,185.194397 
	C283.312378,186.391464 283.252747,188.190491 283.825195,191.055176 
	C285.686188,200.367813 283.709625,208.911957 277.789520,216.427155 
	C276.633026,217.895279 275.627563,220.061676 273.111115,218.447723 
	C272.563019,216.186615 274.254791,215.004196 275.274963,213.573486 
	C279.600220,207.507385 280.583344,200.843414 279.319122,193.610535 
	C278.600342,189.498276 277.062561,188.578857 272.890442,190.015320 
	C253.700455,196.622421 234.342972,202.741516 215.128586,209.279648 
	C185.650314,219.310364 156.536713,230.297989 128.136078,243.117188 
	C125.201523,244.441772 123.216034,245.741531 123.232979,249.573898 
	C123.341820,274.187103 130.008438,296.495361 146.186676,316.309967 
M253.751968,161.756058 
	C234.566879,150.538422 213.958603,146.746979 192.799316,153.608078 
	C156.599396,165.346268 134.894455,191.127380 125.574448,227.635864 
	C124.678452,231.145676 123.341507,234.902863 124.913368,239.206787 
	C173.767563,217.031998 224.718292,201.290543 275.513123,183.978073 
	C270.146545,174.280289 262.838898,167.652328 253.751968,161.756058 
M436.333710,116.772209 
	C445.845215,111.306686 455.455444,105.979149 463.696991,98.615997 
	C465.268799,97.211708 467.362335,95.409103 466.239441,93.169197 
	C465.151520,90.998978 462.628174,91.438614 460.410675,91.833839 
	C434.217072,96.502266 416.846893,113.234955 402.335114,133.921371 
	C413.934357,129.186752 424.799194,123.128693 436.333710,116.772209 
z"/>
<path fill="#000000" opacity="1.000000" stroke="none" 
	d="
M637.754395,121.644272 
	C642.932739,121.325607 644.904602,123.300720 644.039307,127.989830 
	C643.031433,133.451736 640.624268,138.412247 637.794678,143.161667 
	C627.040833,161.211761 613.090759,176.619553 598.076294,191.140533 
	C586.094055,202.728897 573.629761,213.775665 560.727844,224.332352 
	C559.457947,225.371414 558.223877,226.614670 557.402466,228.014954 
	C552.690369,236.047729 548.108032,244.156616 544.238586,252.958893 
	C547.258545,250.309311 550.344849,247.730972 553.284424,244.994995 
	C559.026306,239.650757 565.081787,234.697601 571.401978,230.060013 
	C574.366699,227.884583 577.463989,225.923172 580.870544,224.519287 
	C583.032104,223.628479 585.442871,222.567383 587.544006,224.094543 
	C589.977905,225.863571 588.511169,228.413834 587.926575,230.556549 
	C586.121399,237.173370 584.820679,243.823837 585.251282,250.739319 
	C585.723877,258.328522 589.482971,261.188080 596.887451,259.251556 
	C603.122986,257.620789 608.399292,254.068344 613.579285,250.408569 
	C624.736816,242.525497 634.648743,232.999893 646.217468,225.641998 
	C647.543518,224.798615 648.391907,223.165009 649.379517,221.836655 
	C651.565002,218.897141 653.636963,215.871307 655.876587,212.974533 
	C657.157227,211.318008 658.748596,209.867905 660.855591,211.868042 
	C662.735962,213.653046 661.417908,215.169952 660.215576,216.617447 
	C654.550537,223.437454 649.629822,230.753632 645.720520,238.715759 
	C643.885864,242.452484 642.164490,246.270538 642.214111,250.579468 
	C642.268677,255.325836 644.534668,257.353607 649.190369,256.559509 
	C654.013977,255.736786 658.317566,253.504944 662.562744,251.171860 
	C674.855530,244.416016 685.742004,235.491699 697.786926,228.351425 
	C701.075745,226.401810 704.275513,224.299789 707.488342,222.224625 
	C717.559753,215.719543 723.629517,216.094254 732.668518,223.881088 
	C733.046387,223.651688 733.544922,223.485718 733.843567,223.144745 
	C735.328064,221.449341 736.858337,219.595169 739.196533,221.718094 
	C741.193909,223.531570 739.913818,225.384644 738.714600,227.033890 
	C734.587402,232.710098 731.121765,238.792465 727.869751,244.985367 
	C724.922546,250.597626 722.252747,256.370056 722.318481,262.925720 
	C722.372620,268.320984 723.983398,269.550232 729.152527,267.802094 
	C737.336487,265.034363 743.964417,259.590546 750.821533,254.611359 
	C762.813416,245.903687 774.068726,236.172653 786.899414,228.633667 
	C790.415344,226.567795 794.018494,224.653564 798.159485,224.184326 
	C799.144897,226.612213 797.418945,227.237152 796.208740,227.821274 
	C778.770813,236.237991 764.549988,249.287888 749.021118,260.453613 
	C742.273193,265.305542 735.691162,270.498291 727.345764,272.519562 
	C721.895508,273.839630 718.665588,271.870392 717.671753,266.326263 
	C716.550537,260.071289 718.164062,254.115005 719.932678,248.195862 
	C720.109192,247.605087 720.179138,246.982468 720.403259,245.841766 
	C716.806458,247.447037 713.742859,249.027817 710.528931,250.194611 
	C706.532532,251.645493 702.276917,252.549973 698.717773,249.346573 
	C694.875427,245.888214 695.147156,241.387192 696.462708,236.835678 
	C696.778992,235.741272 697.039062,234.630585 697.425781,233.138367 
	C694.807556,233.258240 693.314148,234.883408 691.611511,236.020828 
	C679.860291,243.870956 668.922241,253.006439 655.787537,258.667542 
	C654.870300,259.062897 653.971436,259.572388 653.010254,259.781830 
	C648.873047,260.683319 644.619202,262.819305 640.762939,259.078308 
	C636.908325,255.338837 637.166443,250.626175 638.112549,245.988480 
	C639.171631,240.796692 641.456116,235.980865 644.124084,230.364243 
	C631.774719,239.833206 621.369385,250.225250 609.037537,258.164795 
	C604.385498,261.159851 599.547852,263.630981 593.953979,264.452148 
	C587.624146,265.381378 583.553345,263.205597 581.012878,257.057159 
	C577.847107,249.395416 578.430725,241.395065 579.042053,233.406342 
	C579.102661,232.615448 579.592651,231.819031 578.571228,230.611099 
	C561.461975,240.316513 549.739380,256.647888 533.553833,267.900085 
	C534.417847,254.303452 543.205933,244.058655 548.432861,231.318375 
	C538.455505,236.700302 529.029907,241.721207 518.582031,242.519714 
	C508.809784,243.266571 500.921387,246.688522 493.564911,252.915466 
	C489.246887,256.570465 483.604614,258.295258 477.742493,258.272705 
	C473.007690,258.254517 469.147308,255.201843 468.762817,251.202057 
	C468.319183,246.587250 471.511292,244.724594 475.143738,243.461426 
	C480.860443,241.473450 486.873291,240.657150 492.831360,240.851273 
	C497.844421,241.014633 501.004700,239.262329 503.338989,235.022278 
	C505.107544,231.809799 507.226044,228.785461 507.666901,225.026382 
	C508.078735,221.514206 506.399658,220.062607 502.977173,220.470764 
	C502.486786,220.529236 501.974365,220.637482 501.534546,220.851166 
	C487.319763,227.756607 473.175079,235.650177 465.521790,249.747711 
	C452.181885,274.319977 440.746979,299.918945 428.113861,324.885284 
	C420.821106,339.297668 412.935974,353.428650 402.395264,365.855469 
	C400.421173,368.182831 398.203613,370.179016 395.563538,371.620178 
	C390.135437,374.583282 386.115479,372.213898 385.650146,366.024353 
	C385.185425,359.842590 387.059174,354.156281 389.273590,348.581055 
	C398.388733,325.632263 411.539581,305.026489 426.312317,285.391022 
	C434.333221,274.729858 442.684357,264.281677 452.263275,255.008820 
	C459.653442,247.854813 463.734924,238.812485 469.566040,229.103973 
	C454.520050,233.964096 440.365265,236.876328 425.747803,230.603653 
	C423.766907,237.248398 422.537384,243.655090 418.866516,249.118668 
	C416.437561,252.733887 413.966187,256.259827 410.219482,258.675537 
	C407.853455,260.200989 405.317902,261.054810 402.672882,259.805115 
	C399.829010,258.461487 399.503906,255.710098 399.674927,252.944275 
	C400.266876,243.370834 405.165161,235.617081 410.483124,228.118073 
	C412.252777,225.622635 414.100586,223.789948 412.157227,220.252640 
	C410.734802,217.663605 413.495422,215.280350 416.773987,215.955231 
	C419.959991,216.611038 422.402435,218.663055 423.269379,221.626480 
	C424.857269,227.054260 429.225769,228.572449 433.750580,229.582748 
	C446.372620,232.400955 458.538147,230.107300 470.439545,225.658798 
	C473.382324,224.558853 474.480621,221.826447 476.113861,219.564880 
	C478.649811,216.053299 481.088715,212.471100 483.651093,208.979279 
	C485.714630,206.167191 488.105103,205.830368 491.193604,208.613251 
	C485.779175,216.821716 480.396973,224.981339 474.195679,234.382721 
	C480.216187,229.103333 485.458160,225.093704 491.098572,221.635071 
	C494.958099,219.268494 498.988373,217.329727 503.400604,216.239502 
	C510.959473,214.371704 515.542542,218.717529 514.071594,226.368530 
	C513.154663,231.137909 510.495819,235.233093 508.469055,240.040054 
	C512.610535,240.927200 516.330872,239.966461 519.894104,239.228943 
	C529.916138,237.154541 539.207458,233.055099 548.160583,228.146072 
	C551.012756,226.582214 553.099670,224.470108 554.828552,221.658279 
	C571.949219,193.812744 589.764587,166.448395 612.043762,142.328796 
	C618.031433,135.846405 624.104065,129.407181 631.562439,124.508835 
	C633.379395,123.315544 635.200684,122.154350 637.754395,121.644272 
M423.093384,322.632263 
	C432.764465,303.561859 441.450928,284.035950 450.107147,264.467804 
	C448.479309,265.939667 447.068573,267.535095 445.688599,269.156708 
	C426.656647,291.520538 409.248535,314.963348 397.196198,341.978821 
	C394.146973,348.813751 391.111267,355.638184 389.722870,363.064117 
	C389.405243,364.763031 389.003510,366.494598 390.599823,367.634583 
	C392.476990,368.975128 394.094757,367.646118 395.537384,366.579926 
	C398.384979,364.475403 400.441284,361.612793 402.458252,358.765869 
	C410.368164,347.600983 416.677429,335.513123 423.093384,322.632263 
M630.041809,131.528458 
	C605.536621,156.218781 586.354248,184.990387 566.898926,213.601715 
	C567.849243,213.436172 568.476624,212.981110 569.064941,212.480118 
	C584.944763,198.956635 599.696594,184.267090 613.742126,168.873566 
	C622.856445,158.884552 631.079590,148.185394 637.548523,136.257706 
	C639.222351,133.171371 641.527039,130.063751 639.969910,125.722374 
	C635.961304,126.216141 633.256226,128.616989 630.041809,131.528458 
M706.856934,247.358398 
	C714.874695,244.718643 720.777466,239.154510 726.281372,233.115494 
	C727.729065,231.527069 730.463440,230.095795 729.097595,227.367249 
	C727.819946,224.814774 725.589783,222.937820 722.618652,222.356735 
	C719.329102,221.713379 716.316711,222.560547 713.722839,224.581009 
	C708.269287,228.828918 703.966309,234.062256 701.286194,240.455536 
	C699.187256,245.462463 700.539490,247.286072 706.856934,247.358398 
M419.642792,228.186508 
	C411.782410,233.260040 404.137726,248.930481 406.081329,255.985504 
	C413.796967,253.787170 421.748505,238.278366 419.642792,228.186508 
M483.813934,252.476517 
	C487.757477,250.508377 491.702271,248.542038 495.820282,244.123901 
	C490.055481,244.873779 485.541107,245.194153 481.155182,246.121780 
	C478.035736,246.781555 472.588684,246.648193 473.736023,251.238525 
	C474.877380,255.805054 479.647095,253.694931 483.813934,252.476517 
z"/>
<path fill="#000000" opacity="1.000000" stroke="none" 
	d="
M671.244873,205.575119 
	C670.210327,207.147491 668.945251,207.375595 667.594666,207.203537 
	C665.589050,206.948029 664.293335,205.794174 663.974304,203.788208 
	C663.713928,202.150635 664.535889,200.873291 665.948303,200.171890 
	C667.864380,199.220398 669.447205,200.038223 670.682678,201.561600 
	C671.542725,202.622101 671.912048,203.856491 671.244873,205.575119 
z"/>
</svg>