<svg width="906" height="179" viewBox="0 0 906 179" fill="none" xmlns="http://www.w3.org/2000/svg">
<path d="M521.808 11.8851C537.111 11.8851 552.808 18.984 546.808 37.7809L526.709 93.8799H528.012L557.907 10.7861H556.907C555.407 12.7861 553.006 14.984 549.006 14.984C540.308 14.984 533.308 10.7861 519.913 10.7861C487.616 10.7861 469.116 34.083 469.116 62.7809C469.116 91.4788 487.616 114.776 519.913 114.776C552.204 114.776 570.704 91.4788 570.704 62.7809H569.506C569.506 91.7757 549.907 113.474 521.709 113.474C462.215 113.474 460.918 11.8851 521.808 11.8851Z" fill="black"/>
<path d="M393.625 167.333C393.875 167.333 394 167.432 394 167.625C394 167.875 393.942 168.119 393.833 168.354C393.718 168.593 393.593 168.708 393.458 168.708H385.812C385.562 168.708 385.437 168.614 385.437 168.416C385.437 168.156 385.489 167.911 385.604 167.687C385.713 167.453 385.833 167.333 385.958 167.333H393.625Z" fill="black"/>
<path d="M397.305 177.583C396.706 177.583 396.409 177.38 396.409 176.979C396.409 176.661 396.601 176.5 396.992 176.5L397.805 176.583C398.44 176.583 398.877 176.224 399.117 175.5C399.294 174.875 399.388 173.765 399.388 172.166V160.687C399.388 159.093 399.31 158.052 399.159 157.562C399.002 157.062 398.825 156.724 398.617 156.541C398.409 156.364 398.138 156.271 397.805 156.271L396.992 156.333C396.601 156.333 396.409 156.182 396.409 155.875C396.409 155.474 396.706 155.271 397.305 155.271C397.898 155.271 398.461 155.312 398.992 155.396C399.534 155.479 400.096 155.521 400.68 155.521C401.263 155.521 401.815 155.479 402.346 155.396C402.872 155.312 403.43 155.271 404.013 155.271C404.607 155.271 404.909 155.474 404.909 155.875C404.909 156.182 404.711 156.333 404.325 156.333L403.534 156.271C402.877 156.271 402.435 156.635 402.2 157.354C402.034 157.937 401.95 159.052 401.95 160.687V169.875C401.95 172.25 402.002 174.224 402.117 175.791C402.909 176 403.784 176.104 404.742 176.104C405.7 176.104 406.534 176.057 407.242 175.958C407.95 175.849 408.565 175.682 409.096 175.458C410.065 175.057 410.825 174.375 411.367 173.416C411.586 173.031 411.805 172.833 412.013 172.833C412.232 172.833 412.346 172.994 412.346 173.312C412.346 173.437 412.31 173.604 412.242 173.812C412.143 174.104 412.013 174.531 411.846 175.083C411.69 175.64 411.56 176.073 411.45 176.375C411.351 176.666 411.242 176.911 411.117 177.104C410.851 177.479 410.482 177.666 410.013 177.666C409.555 177.666 409.117 177.656 408.7 177.646C408.294 177.646 407.867 177.635 407.409 177.625C406.961 177.609 406.476 177.588 405.95 177.562C405.435 177.531 404.846 177.5 404.18 177.458C403.523 177.427 402.956 177.401 402.471 177.375C401.982 177.343 401.497 177.333 401.013 177.333C400.523 177.333 400.122 177.343 399.805 177.375C399.482 177.401 399.19 177.427 398.93 177.458C398.664 177.484 398.409 177.51 398.159 177.541C397.919 177.567 397.638 177.583 397.305 177.583Z" fill="black"/>
<path d="M420.281 177.583C419.573 177.583 419.219 177.38 419.219 176.979C419.219 176.661 419.417 176.5 419.823 176.5L420.615 176.583C421.266 176.583 421.698 176.224 421.906 175.5C422.099 174.875 422.198 173.765 422.198 172.166V166.479L417.073 158.916C416.375 157.906 415.891 157.265 415.615 157C415.156 156.614 414.682 156.416 414.198 156.416C413.724 156.416 413.49 156.224 413.49 155.833C413.49 155.682 413.573 155.552 413.74 155.437C413.917 155.328 414.198 155.271 414.573 155.271C414.948 155.271 415.344 155.312 415.761 155.396C416.177 155.479 416.62 155.521 417.094 155.521L419.74 155.271C420.448 155.271 420.802 155.453 420.802 155.812C420.802 156.161 420.495 156.333 419.886 156.333C419.287 156.333 418.99 156.531 418.99 156.916C418.99 157.14 419.188 157.557 419.594 158.166L424.073 164.958L427.531 159.5C428.24 158.39 428.615 157.724 428.656 157.5C428.708 157.265 428.74 157.104 428.74 157.021C428.74 156.562 428.396 156.333 427.719 156.333C427.052 156.333 426.719 156.161 426.719 155.812C426.719 155.453 427.073 155.271 427.781 155.271C428.156 155.271 428.521 155.312 428.886 155.396C429.261 155.479 429.641 155.521 430.031 155.521C430.417 155.521 430.781 155.479 431.115 155.396C431.458 155.312 431.823 155.271 432.198 155.271C432.958 155.271 433.344 155.458 433.344 155.833C433.344 156.224 433.083 156.416 432.573 156.416C432.057 156.416 431.641 156.557 431.323 156.833C430.823 157.25 430.182 158.057 429.406 159.25L424.761 166.25V172.166C424.761 173.807 424.828 174.864 424.969 175.333C425.12 175.807 425.302 176.135 425.511 176.312C425.729 176.494 426.016 176.583 426.365 176.583L427.136 176.5C427.521 176.5 427.719 176.661 427.719 176.979C427.719 177.38 427.37 177.583 426.677 177.583C426.313 177.583 425.938 177.547 425.552 177.479C424.245 177.271 423.125 177.239 422.198 177.375C421.266 177.51 420.625 177.583 420.281 177.583Z" fill="black"/>
<path d="M435.286 166.313C435.286 164.677 435.588 163.167 436.203 161.792C436.812 160.417 437.64 159.24 438.682 158.25C439.734 157.25 440.953 156.479 442.328 155.938C443.713 155.396 445.203 155.125 446.786 155.125C448.38 155.125 449.859 155.417 451.224 156C452.599 156.573 453.776 157.37 454.765 158.396C456.807 160.552 457.828 163.286 457.828 166.604C457.828 169.76 456.771 172.391 454.661 174.5C452.494 176.667 449.75 177.75 446.432 177.75C443.166 177.75 440.484 176.656 438.39 174.458C436.317 172.323 435.286 169.604 435.286 166.313ZM438.078 165.396C438.078 166.802 438.307 168.182 438.765 169.542C439.224 170.906 439.875 172.094 440.724 173.104C442.541 175.302 444.833 176.396 447.599 176.396C449.734 176.396 451.484 175.594 452.849 173.979C454.265 172.328 454.974 170.161 454.974 167.479C454.974 164.302 454.119 161.661 452.411 159.563C450.713 157.495 448.567 156.458 445.974 156.458C443.849 156.458 442.015 157.281 440.474 158.917C438.875 160.599 438.078 162.76 438.078 165.396Z" fill="black"/>
<path d="M461.663 177.583C460.955 177.583 460.601 177.38 460.601 176.979C460.601 176.661 460.799 176.5 461.205 176.5L461.996 176.583C462.647 176.583 463.08 176.224 463.288 175.5C463.481 174.875 463.58 173.765 463.58 172.166V160.708C463.58 159.114 463.502 158.073 463.351 157.583C463.21 157.099 463.028 156.765 462.809 156.583C462.601 156.406 462.33 156.312 461.996 156.312L461.205 156.396C460.799 156.396 460.601 156.239 460.601 155.916C460.601 155.489 460.955 155.271 461.663 155.271L463.809 155.521C464.252 155.521 464.653 155.489 465.017 155.416L480.017 172.854V160.687C480.017 159.104 479.934 158.062 479.767 157.562C479.601 157.062 479.403 156.724 479.184 156.541C478.96 156.364 478.674 156.271 478.33 156.271L477.538 156.333C477.147 156.333 476.955 156.182 476.955 155.875C476.955 155.474 477.309 155.271 478.017 155.271C478.278 155.271 478.642 155.307 479.101 155.375C479.668 155.474 480.189 155.521 480.663 155.521C481.132 155.521 481.59 155.479 482.038 155.396C482.481 155.312 483.002 155.271 483.601 155.271C484.194 155.271 484.496 155.474 484.496 155.875C484.496 156.182 484.293 156.333 483.892 156.333L483.101 156.271C482.444 156.271 482.007 156.635 481.788 157.354C481.606 157.937 481.517 159.052 481.517 160.687V177.125C481.517 177.484 481.481 177.729 481.413 177.854C481.34 177.979 481.236 178.041 481.101 178.041C480.903 178.041 480.601 177.812 480.184 177.354L465.163 159.958V172.166C465.163 173.807 465.231 174.864 465.371 175.333C465.522 175.807 465.705 176.135 465.913 176.312C466.132 176.494 466.418 176.583 466.767 176.583L467.538 176.5C467.924 176.5 468.121 176.661 468.121 176.979C468.121 177.38 467.809 177.583 467.184 177.583C466.569 177.583 466.022 177.541 465.538 177.458C465.049 177.375 464.58 177.333 464.121 177.333C463.663 177.333 463.21 177.375 462.767 177.458C462.335 177.541 461.965 177.583 461.663 177.583Z" fill="black"/>
<path d="M494.26 167.333C494.51 167.333 494.635 167.432 494.635 167.625C494.635 167.875 494.577 168.119 494.468 168.354C494.354 168.593 494.229 168.708 494.093 168.708H486.447C486.197 168.708 486.072 168.614 486.072 168.416C486.072 168.156 486.124 167.911 486.239 167.687C486.348 167.453 486.468 167.333 486.593 167.333H494.26Z" fill="black"/>
<path d="M0.438965 99.293V100.496H34.5588V99.3971H30.1577C22.1525 99.3971 20.5535 93.694 20.5535 86.2878C20.5535 71.8815 25.5535 37.2565 30.5588 7.14193C30.8608 8.04297 31.0588 8.9388 31.3608 9.83984C43.5692 46.3659 47.5692 68.4753 56.8765 102.496H58.0744C66.7827 71.3763 75.1838 38.7565 83.689 6.9388C88.4911 36.5586 96.4963 79.9857 96.4963 89.3919C96.4963 95.293 92.1942 99.3971 84.189 99.3971H79.7879V100.496H118.814V99.293H114.111C103.705 99.293 100.699 75.1784 96.8973 50.4648C94.0952 31.9544 89.5952 9.14193 89.5952 4.03776C89.5952 2.33464 90.3973 1.63672 92.2983 1.63672H101.6V0.433594H84.09C83.9911 0.834635 83.8921 1.23568 83.7931 1.63672C74.6838 38.2565 69.4806 55.069 60.6785 88.8867C51.1733 54.4701 46.6681 38.3607 36.564 1.63672C36.4598 1.23568 36.3608 0.834635 36.2619 0.433594H17.6525V1.63672H25.3556C27.4546 1.63672 29.5588 2.63672 29.5588 4.4388C29.5588 11.043 25.1577 32.2565 22.3556 50.4648C18.5535 75.1784 15.5483 99.293 5.14209 99.293H0.438965Z" fill="black"/>
<path d="M141.342 102.276C140.342 102.276 139.404 102.343 138.529 102.484C137.665 102.635 136.727 102.713 135.717 102.713C134.717 102.713 134.217 102.385 134.217 101.734C134.217 101.083 134.675 100.755 135.592 100.755C136.55 100.755 137.227 100.583 137.633 100.234C138.3 99.6247 138.951 98.6403 139.592 97.2757C140.243 95.9007 140.847 94.6247 141.404 93.4424C141.956 92.2497 142.597 90.8538 143.321 89.2549C144.04 87.6611 144.831 85.8799 145.696 83.9216C146.571 81.9632 147.488 79.8799 148.446 77.6715C150.946 71.8695 152.597 67.9632 153.404 65.9632C154.206 63.9632 154.654 62.859 154.738 62.6507C154.821 62.432 154.91 62.2288 155.008 62.0465C155.269 61.6455 155.488 61.4424 155.654 61.4424C155.831 61.4424 155.977 61.4736 156.092 61.5257C156.217 61.5674 156.347 61.6611 156.488 61.7965C156.779 62.1611 157.071 62.708 157.363 63.4424C157.654 64.182 158.05 65.1715 158.55 66.4215C159.05 67.6715 159.618 69.0882 160.258 70.6715C160.894 72.2549 161.576 73.958 162.3 75.7757C163.035 77.583 163.764 79.3903 164.488 81.1924C165.222 82.9997 165.936 84.7549 166.633 86.4632C167.326 88.1611 167.946 89.6872 168.488 91.0466C170.165 95.1299 171.243 97.5778 171.717 98.3799C172.186 99.1872 172.576 99.7445 172.883 100.047C173.368 100.521 174.092 100.755 175.05 100.755C176.008 100.755 176.488 101.083 176.488 101.734C176.488 102.385 175.873 102.713 174.654 102.713C174.123 102.713 173.665 102.682 173.279 102.63C172.904 102.588 172.519 102.547 172.133 102.505C170.993 102.349 169.988 102.276 169.113 102.276L163.446 102.713C162.18 102.713 161.55 102.349 161.55 101.63C161.55 101.047 161.904 100.755 162.613 100.755L164.363 100.963C165.097 100.963 165.581 100.807 165.821 100.484C166.055 100.151 166.175 99.7445 166.175 99.2549C166.175 98.3382 165.785 96.9163 165.008 94.9841L162.571 88.8799H146.321C145.847 90.0622 145.41 91.1403 145.008 92.1091C144.602 93.083 144.238 94.0257 143.904 94.9424C143.373 96.432 143.113 97.6038 143.113 98.4632C143.113 99.3122 143.264 99.9372 143.571 100.338C143.873 100.729 144.446 100.922 145.279 100.922L147.05 100.776C147.743 100.776 148.092 101.062 148.092 101.63C148.092 102.349 147.456 102.713 146.196 102.713L141.342 102.276ZM161.571 86.4007L154.613 68.9424C153.264 72.359 150.847 78.182 147.363 86.4007H161.571Z" fill="black"/>
<path d="M198.585 102.713C197.319 102.713 196.689 102.348 196.689 101.629C196.689 101.062 197.033 100.775 197.731 100.775L199.168 100.921C200.345 100.921 201.132 100.27 201.522 98.9626C201.866 97.8532 202.043 95.8584 202.043 92.9834V72.3584C202.043 69.473 201.903 67.598 201.626 66.7334C201.361 65.8584 201.033 65.2646 200.647 64.9417C200.272 64.624 199.778 64.4626 199.168 64.4626L197.731 64.6084C197.033 64.6084 196.689 64.3115 196.689 63.7126C196.689 62.9626 197.319 62.5876 198.585 62.5876L202.418 63.0251C203.251 63.0251 203.986 62.9626 204.626 62.8376L231.606 94.2126V72.2959C231.606 69.4521 231.449 67.5824 231.147 66.6917C230.856 65.7907 230.507 65.1813 230.106 64.8584C229.715 64.5251 229.21 64.3584 228.585 64.3584L227.147 64.4834C226.449 64.4834 226.106 64.2021 226.106 63.6292C226.106 62.9105 226.736 62.5459 228.001 62.5459C228.486 62.5459 229.137 62.6188 229.96 62.7542C231.001 62.9365 231.939 63.0251 232.772 63.0251C233.616 63.0251 234.439 62.9521 235.231 62.7959C236.033 62.6292 236.97 62.5459 238.043 62.5459C239.126 62.5459 239.668 62.9105 239.668 63.6292C239.668 64.2021 239.314 64.4834 238.606 64.4834L237.168 64.3584C235.986 64.3584 235.194 65.0199 234.793 66.3376C234.46 67.3688 234.293 69.3532 234.293 72.2959V101.9C234.293 102.567 234.236 103.004 234.126 103.213C234.012 103.421 233.824 103.525 233.564 103.525C233.215 103.525 232.658 103.114 231.897 102.296L204.897 71.0251V92.9834C204.897 95.9417 205.028 97.848 205.293 98.6917C205.554 99.5407 205.876 100.124 206.251 100.442C206.626 100.765 207.126 100.921 207.751 100.921L209.168 100.775C209.876 100.775 210.231 101.062 210.231 101.629C210.231 102.348 209.668 102.713 208.543 102.713C207.418 102.713 206.418 102.634 205.543 102.483C204.679 102.343 203.84 102.275 203.022 102.275C202.199 102.275 201.397 102.343 200.606 102.483C199.814 102.634 199.137 102.713 198.585 102.713Z" fill="black"/>
<path d="M262.841 102.713C261.575 102.713 260.945 102.348 260.945 101.629C260.945 101.062 261.299 100.775 262.008 100.775L263.424 100.921C264.476 100.921 265.216 100.416 265.633 99.4001C266.075 98.2751 266.299 96.1397 266.299 92.9834L266.153 72.2959C266.153 69.0771 265.976 67.0563 265.633 66.2334C265.299 65.4001 264.95 64.8792 264.591 64.6709C264.226 64.4626 263.789 64.3584 263.278 64.3584L261.862 64.4834C261.153 64.4834 260.799 64.2021 260.799 63.6292C260.799 62.9105 261.331 62.5459 262.403 62.5459C263.487 62.5459 264.508 62.6292 265.466 62.7959C266.435 62.9521 267.45 63.0251 268.508 63.0251C269.56 63.0251 270.56 62.9521 271.508 62.7959C272.466 62.6292 273.476 62.5459 274.549 62.5459C275.617 62.5459 276.153 62.9105 276.153 63.6292C276.153 64.2021 275.799 64.4834 275.091 64.4834L273.695 64.3584C272.638 64.3584 271.903 64.8688 271.487 65.8792C271.039 67.0199 270.82 69.1605 270.82 72.2959L270.966 92.9834C270.966 96.1397 271.153 98.1449 271.528 99.0042C271.914 99.8532 272.305 100.39 272.695 100.608C273.081 100.817 273.534 100.921 274.049 100.921L275.445 100.775C276.153 100.775 276.508 101.062 276.508 101.629C276.508 102.348 275.883 102.713 274.633 102.713C273.976 102.713 273.289 102.655 272.57 102.546C270.122 102.16 268.049 102.088 266.341 102.338C264.633 102.588 263.466 102.713 262.841 102.713Z" fill="black"/>
<path d="M336.932 71.4837C336.932 72.2493 336.666 72.6296 336.14 72.6296C335.666 72.6296 335.276 72.1608 334.974 71.2129C334.666 70.2546 334.099 69.3587 333.265 68.5254C332.432 67.6921 331.422 66.9941 330.244 66.4212C327.797 65.2285 325.172 64.6296 322.369 64.6296C319.578 64.6296 317.161 65.0046 315.119 65.7546C313.078 66.5046 311.317 67.5827 309.849 68.9837C306.807 71.9837 305.286 76.0202 305.286 81.0879C305.286 86.7129 307.005 91.3535 310.453 95.0046C313.869 98.6452 318.244 100.463 323.578 100.463C329.505 100.463 334.088 97.7337 337.328 92.2754C337.547 91.9316 337.776 91.7337 338.015 91.6921C338.224 91.6921 338.432 91.9316 338.64 92.4004C338.859 92.8744 338.974 93.4004 338.974 93.9837C338.974 94.9577 338.14 96.2285 336.474 97.7962C334.817 99.3535 332.807 100.609 330.432 101.567C328.057 102.525 325.291 103.005 322.14 103.005C318.984 103.005 316 102.489 313.182 101.463C310.359 100.437 307.963 99.041 305.994 97.2754C301.854 93.5566 299.786 88.916 299.786 83.3587C299.786 77.0671 301.875 71.9837 306.057 68.1087C310.234 64.2233 315.729 62.2754 322.536 62.2754C327.463 62.2754 331.541 62.9368 334.765 64.2546C335.39 64.5202 335.797 64.7858 335.994 65.0462C336.38 65.5879 336.609 66.4004 336.682 67.4837C336.75 68.5671 336.791 69.3171 336.807 69.7337C336.89 70.6921 336.932 71.2754 336.932 71.4837Z" fill="black"/>
<path d="M365.393 102.276C364.393 102.276 363.455 102.343 362.58 102.484C361.715 102.635 360.778 102.713 359.768 102.713C358.768 102.713 358.268 102.385 358.268 101.734C358.268 101.083 358.726 100.755 359.643 100.755C360.601 100.755 361.278 100.583 361.684 100.234C362.351 99.6247 363.002 98.6403 363.643 97.2757C364.294 95.9007 364.898 94.6247 365.455 93.4424C366.007 92.2497 366.648 90.8538 367.372 89.2549C368.09 87.6611 368.882 85.8799 369.747 83.9216C370.622 81.9632 371.538 79.8799 372.497 77.6715C374.997 71.8695 376.648 67.9632 377.455 65.9632C378.257 63.9632 378.705 62.859 378.788 62.6507C378.872 62.432 378.96 62.2288 379.059 62.0465C379.32 61.6455 379.538 61.4424 379.705 61.4424C379.882 61.4424 380.028 61.4736 380.143 61.5257C380.268 61.5674 380.398 61.6611 380.538 61.7965C380.83 62.1611 381.122 62.708 381.413 63.4424C381.705 64.182 382.101 65.1715 382.601 66.4215C383.101 67.6715 383.669 69.0882 384.309 70.6715C384.945 72.2549 385.627 73.958 386.351 75.7757C387.085 77.583 387.814 79.3903 388.538 81.1924C389.273 82.9997 389.986 84.7549 390.684 86.4632C391.377 88.1611 391.997 89.6872 392.538 91.0466C394.215 95.1299 395.294 97.5778 395.768 98.3799C396.236 99.1872 396.627 99.7445 396.934 100.047C397.419 100.521 398.143 100.755 399.101 100.755C400.059 100.755 400.538 101.083 400.538 101.734C400.538 102.385 399.924 102.713 398.705 102.713C398.174 102.713 397.715 102.682 397.33 102.63C396.955 102.588 396.57 102.547 396.184 102.505C395.044 102.349 394.038 102.276 393.163 102.276L387.497 102.713C386.231 102.713 385.601 102.349 385.601 101.63C385.601 101.047 385.955 100.755 386.663 100.755L388.413 100.963C389.148 100.963 389.632 100.807 389.872 100.484C390.106 100.151 390.226 99.7445 390.226 99.2549C390.226 98.3382 389.835 96.9163 389.059 94.9841L386.622 88.8799H370.372C369.898 90.0622 369.46 91.1403 369.059 92.1091C368.653 93.083 368.288 94.0257 367.955 94.9424C367.424 96.432 367.163 97.6038 367.163 98.4632C367.163 99.3122 367.314 99.9372 367.622 100.338C367.924 100.729 368.497 100.922 369.33 100.922L371.101 100.776C371.794 100.776 372.143 101.062 372.143 101.63C372.143 102.349 371.507 102.713 370.247 102.713L365.393 102.276ZM385.622 86.4007L378.663 68.9424C377.314 72.359 374.898 78.182 371.413 86.4007H385.622Z" fill="black"/>
<path d="M576.331 88.6667C576.331 85.724 576.878 83.0156 577.977 80.5417C579.086 78.0729 580.581 75.9375 582.456 74.1458C584.341 72.3542 586.524 70.9687 588.998 69.9792C591.482 68.9948 594.164 68.5 597.039 68.5C599.914 68.5 602.581 69.0313 605.039 70.0833C607.498 71.125 609.607 72.5625 611.373 74.3958C615.05 78.2865 616.894 83.2187 616.894 89.1875C616.894 94.8542 614.987 99.5938 611.185 103.396C607.295 107.286 602.357 109.229 596.373 109.229C590.508 109.229 585.685 107.266 581.894 103.333C578.185 99.474 576.331 94.5833 576.331 88.6667ZM581.331 87C581.331 89.5417 581.748 92.0417 582.581 94.5C583.414 96.9479 584.586 99.0729 586.102 100.875C589.362 104.823 593.487 106.792 598.477 106.792C602.321 106.792 605.477 105.349 607.935 102.458C610.477 99.5 611.748 95.599 611.748 90.75C611.748 85.0313 610.211 80.2813 607.144 76.5C604.102 72.7917 600.248 70.9375 595.581 70.9375C591.732 70.9375 588.42 72.4063 585.644 75.3333C582.769 78.375 581.331 82.2656 581.331 87Z" fill="black"/>
<path d="M654.049 70.708L652.654 70.583C651.456 70.583 650.643 71.2445 650.216 72.5622C649.841 73.7028 649.654 75.6872 649.654 78.5205V92.9997C649.654 95.7236 649.846 97.6768 650.237 98.8538C650.638 100.036 651.195 101.114 651.904 102.083C652.612 103.057 653.445 103.89 654.404 104.583C656.331 105.948 658.513 106.625 660.945 106.625C663.388 106.625 665.393 106.343 666.966 105.771C668.549 105.187 669.81 104.323 670.758 103.166C672.492 101.057 673.362 97.6195 673.362 92.8538L673.299 78.5205C673.299 75.6611 673.159 73.7861 672.883 72.8955C672.617 72.0101 672.289 71.4059 671.904 71.083C671.529 70.7497 671.034 70.583 670.424 70.583L669.008 70.708C668.299 70.708 667.945 70.4268 667.945 69.8538C667.945 69.1351 668.477 68.7705 669.549 68.7705C670.633 68.7705 671.57 68.8538 672.362 69.0205C673.164 69.1768 674.008 69.2497 674.883 69.2497L679.716 68.7705C680.966 68.7705 681.591 69.1351 681.591 69.8538C681.591 70.4268 681.242 70.708 680.549 70.708L679.133 70.583C677.935 70.583 677.143 71.2445 676.758 72.5622C676.424 73.6872 676.258 75.6768 676.258 78.5205L676.216 94.3538C676.216 98.7028 674.826 102.265 672.049 105.041C669.258 107.833 665.534 109.229 660.883 109.229C655.826 109.229 651.831 107.833 648.904 105.041C645.914 102.156 644.424 98.1403 644.424 92.9997V78.5205C644.424 75.6872 644.279 73.8226 643.987 72.9163C643.695 72.0153 643.346 71.4059 642.945 71.083C642.555 70.7497 642.049 70.583 641.424 70.583L639.987 70.708C639.289 70.708 638.945 70.4268 638.945 69.8538C638.945 69.1351 639.487 68.7705 640.57 68.7705C641.654 68.7705 642.706 68.8538 643.737 69.0205C644.779 69.1768 645.867 69.2497 647.008 69.2497C648.143 69.2497 649.247 69.1768 650.32 69.0205C651.388 68.8538 652.451 68.7705 653.508 68.7705C654.576 68.7705 655.112 69.1351 655.112 69.8538C655.112 70.4268 654.758 70.708 654.049 70.708Z" fill="black"/>
<path d="M712.788 108.937C711.507 108.937 710.871 108.573 710.871 107.854C710.871 107.286 711.225 107 711.934 107L713.371 107.146C714.538 107.146 715.314 106.494 715.704 105.187C716.064 104.078 716.246 102.083 716.246 99.208V71.8122H715.454C712.022 71.8122 709.293 72.1663 707.267 72.8747C705.861 73.3903 704.902 74.2601 704.392 75.4788C704.027 76.3851 703.642 76.833 703.225 76.833C702.652 76.833 702.371 76.4997 702.371 75.833C702.371 75.6403 702.413 75.4163 702.496 75.1663C702.59 74.9059 702.694 74.5986 702.809 74.2497C703.126 73.3226 703.314 72.3486 703.371 71.333C703.423 70.307 703.538 69.6247 703.704 69.2913C703.871 68.9476 704.1 68.7705 704.392 68.7705C704.684 68.7705 704.944 68.8018 705.184 68.8538C705.418 68.8955 705.767 68.9476 706.225 68.9997C707.392 69.1663 708.861 69.2497 710.642 69.2497H729.204C730.663 69.2497 731.715 69.1768 732.371 69.0205C733.022 68.8538 733.496 68.7705 733.788 68.7705C734.423 68.7705 734.746 69.0778 734.746 69.6872C734.746 69.9945 734.689 70.3643 734.579 70.7913C734.288 71.7497 734.09 72.5778 733.996 73.2705C733.913 73.9684 733.829 74.5361 733.746 74.9788C733.673 75.4111 733.59 75.7497 733.496 75.9997C733.34 76.432 733.105 76.6455 732.788 76.6455C732.48 76.6455 732.277 76.5361 732.184 76.3122C732.1 76.0934 732.007 75.6611 731.913 75.0205C731.814 74.3695 731.647 73.8434 731.413 73.4372C731.173 73.0205 730.861 72.6976 730.475 72.458C729.793 72.0309 728.684 71.8122 727.142 71.8122H720.829V99.208C720.829 102.166 720.96 104.073 721.225 104.916C721.486 105.765 721.809 106.349 722.184 106.666C722.569 106.989 723.079 107.146 723.704 107.146L725.121 107C725.814 107 726.163 107.286 726.163 107.854C726.163 108.573 725.538 108.937 724.288 108.937C723.647 108.937 722.965 108.88 722.246 108.771C719.897 108.396 717.892 108.328 716.225 108.562C714.559 108.812 713.413 108.937 712.788 108.937Z" fill="black"/>
<path d="M770.586 70.708L769.19 70.583C767.992 70.583 767.179 71.2445 766.752 72.5622C766.377 73.7028 766.19 75.6872 766.19 78.5205V92.9997C766.19 95.7236 766.382 97.6768 766.773 98.8538C767.174 100.036 767.731 101.114 768.44 102.083C769.148 103.057 769.981 103.89 770.94 104.583C772.867 105.948 775.049 106.625 777.481 106.625C779.924 106.625 781.929 106.343 783.502 105.771C785.086 105.187 786.346 104.323 787.294 103.166C789.028 101.057 789.898 97.6195 789.898 92.8538L789.836 78.5205C789.836 75.6611 789.695 73.7861 789.419 72.8955C789.153 72.0101 788.825 71.4059 788.44 71.083C788.065 70.7497 787.57 70.583 786.961 70.583L785.544 70.708C784.836 70.708 784.481 70.4268 784.481 69.8538C784.481 69.1351 785.013 68.7705 786.086 68.7705C787.169 68.7705 788.106 68.8538 788.898 69.0205C789.7 69.1768 790.544 69.2497 791.419 69.2497L796.252 68.7705C797.502 68.7705 798.127 69.1351 798.127 69.8538C798.127 70.4268 797.778 70.708 797.086 70.708L795.669 70.583C794.471 70.583 793.679 71.2445 793.294 72.5622C792.961 73.6872 792.794 75.6768 792.794 78.5205L792.752 94.3538C792.752 98.7028 791.362 102.265 788.586 105.041C785.794 107.833 782.07 109.229 777.419 109.229C772.362 109.229 768.367 107.833 765.44 105.041C762.45 102.156 760.961 98.1403 760.961 92.9997V78.5205C760.961 75.6872 760.815 73.8226 760.523 72.9163C760.231 72.0153 759.882 71.4059 759.481 71.083C759.091 70.7497 758.586 70.583 757.961 70.583L756.523 70.708C755.825 70.708 755.481 70.4268 755.481 69.8538C755.481 69.1351 756.023 68.7705 757.106 68.7705C758.19 68.7705 759.242 68.8538 760.273 69.0205C761.315 69.1768 762.403 69.2497 763.544 69.2497C764.679 69.2497 765.784 69.1768 766.856 69.0205C767.924 68.8538 768.987 68.7705 770.044 68.7705C771.112 68.7705 771.648 69.1351 771.648 69.8538C771.648 70.4268 771.294 70.708 770.586 70.708Z" fill="black"/>
<path d="M821.199 108.937C819.933 108.937 819.303 108.573 819.303 107.854C819.303 107.286 819.646 107 820.344 107L821.782 107.146C822.959 107.146 823.751 106.494 824.157 105.187C824.49 104.078 824.657 102.083 824.657 99.208V78.5205C824.657 75.6611 824.516 73.7861 824.24 72.8955C823.975 72.0101 823.646 71.4059 823.261 71.083C822.886 70.7497 822.391 70.583 821.782 70.583L820.344 70.708C819.646 70.708 819.303 70.4268 819.303 69.8538C819.303 69.1351 819.834 68.7705 820.907 68.7705C821.975 68.7705 822.995 68.8538 823.969 69.0205C824.938 69.1768 825.949 69.2497 826.99 69.2497C828.042 69.2497 829.058 69.1768 830.032 69.0205C831.001 68.8538 832.245 68.7705 833.761 68.7705C835.271 68.7705 836.896 69.0153 838.636 69.4997C840.37 69.9893 841.834 70.682 843.032 71.583C845.501 73.4476 846.74 75.9059 846.74 78.958C846.74 82.3643 845.344 85.2913 842.553 87.7497C841.662 88.5413 840.667 89.208 839.574 89.7497L849.094 103.583C850.162 105.166 851.344 106.125 852.636 106.458C853.011 106.557 853.475 106.635 854.032 106.687C855.032 106.786 855.532 107.114 855.532 107.666C855.532 108.224 854.995 108.5 853.928 108.5H848.303C846.954 108.5 845.73 107.619 844.636 105.854L837.261 94.0622C836.594 93.0205 835.954 92.2861 835.344 91.8538C834.745 91.4111 833.813 91.1872 832.553 91.1872C831.287 91.1872 830.188 91.2184 829.261 91.2705V99.208C829.261 102.166 829.391 104.073 829.657 104.916C829.917 105.765 830.24 106.349 830.615 106.666C831.001 106.989 831.511 107.146 832.136 107.146L833.532 107C834.24 107 834.594 107.286 834.594 107.854C834.594 108.573 833.969 108.937 832.719 108.937C832.063 108.937 831.376 108.88 830.657 108.771C828.324 108.396 826.313 108.328 824.636 108.562C822.969 108.812 821.824 108.937 821.199 108.937ZM829.261 88.6872C830.521 88.8278 831.745 88.8955 832.928 88.8955H834.761C836.662 88.8955 838.266 88.2497 839.574 86.958C841.084 85.458 841.844 83.4111 841.844 80.8122C841.844 77.6872 840.896 75.2184 839.011 73.3955C837.23 71.6872 834.949 70.833 832.157 70.833C831.157 70.833 830.417 70.9736 829.949 71.2497C829.49 71.5153 829.261 71.9788 829.261 72.6455V88.6872Z" fill="black"/>
<path d="M877.378 108.937C876.295 108.937 875.753 108.573 875.753 107.854C875.753 107.286 876.107 107 876.815 107L878.253 107.146C879.347 107.146 880.091 106.682 880.482 105.75C880.909 104.666 881.128 102.515 881.128 99.2913V78.5205C881.128 75.3278 880.972 73.3122 880.67 72.4788C880.362 71.6455 880.024 71.1247 879.649 70.9163C879.284 70.6976 878.821 70.583 878.253 70.583L876.815 70.708C876.107 70.708 875.753 70.4268 875.753 69.8538C875.753 69.1351 876.274 68.7705 877.315 68.7705C878.368 68.7705 879.232 68.8018 879.899 68.8538C880.576 68.8955 881.258 68.9476 881.94 68.9997C883.758 69.1663 885.19 69.2497 886.232 69.2497C887.274 69.2497 888.378 69.2288 889.545 69.1872C890.722 69.1351 892.034 69.0726 893.482 68.9997C897.284 68.8486 899.925 68.7705 901.399 68.7705C902.883 68.7705 903.711 68.8643 903.878 69.0413C904.045 69.208 904.128 69.4476 904.128 69.7497C904.128 70.057 904.118 70.3486 904.107 70.6247C904.091 70.8903 904.076 71.1872 904.065 71.5205C904.034 71.9788 903.972 72.6559 903.878 73.5413C903.779 74.432 903.659 75.0309 903.524 75.333C903.399 75.6247 903.201 75.7705 902.94 75.7705C902.69 75.7705 902.513 75.708 902.42 75.583C902.321 75.458 902.19 75.1663 902.024 74.708C901.857 74.2497 901.565 73.8122 901.149 73.3955C900.732 72.9684 900.071 72.6195 899.17 72.3538C897.404 71.8278 894.154 71.5622 889.42 71.5622H886.815C886.341 71.5622 886.045 71.6351 885.92 71.7705C885.795 71.8955 885.732 72.208 885.732 72.708V85.0413C888.05 85.307 889.972 85.4372 891.503 85.4372C893.045 85.4372 894.138 85.432 894.795 85.4163C895.446 85.3903 895.987 85.3278 896.42 85.2288C897.18 85.1038 897.732 84.7653 898.065 84.208C898.716 83.182 899.253 82.6663 899.67 82.6663C900.196 82.6663 900.461 82.9372 900.461 83.4788L899.44 87.6455L899.545 89.8747C899.545 91.2809 899.211 91.9788 898.545 91.9788C897.987 91.9788 897.711 91.6038 897.711 90.8538C897.711 90.1038 897.659 89.5413 897.565 89.1663C897.482 88.7913 897.237 88.4997 896.836 88.2913C896.211 87.9736 894.68 87.8122 892.253 87.8122C889.836 87.8122 887.659 87.9268 885.732 88.1455V95.083C885.732 99.4059 885.826 102.968 886.024 105.771C887.607 106.135 889.321 106.312 891.17 106.312C893.029 106.312 894.618 106.265 895.94 106.166C897.258 106.057 898.388 105.854 899.336 105.562C901.237 105.01 902.638 103.927 903.545 102.312C903.93 101.619 904.321 101.271 904.711 101.271C905.097 101.271 905.295 101.552 905.295 102.104C905.295 102.343 905.222 102.646 905.086 103.021C904.93 103.536 904.711 104.291 904.42 105.291C904.128 106.291 903.899 107.021 903.732 107.479C903.576 107.927 903.404 108.265 903.211 108.5C902.92 108.885 902.341 109.083 901.482 109.083C900.618 109.083 899.784 109.073 898.982 109.062C898.19 109.062 897.357 109.047 896.482 109.021C895.466 108.989 893.888 108.916 891.753 108.791C886.446 108.541 883.336 108.453 882.42 108.521C881.503 108.604 880.805 108.666 880.336 108.708C879.862 108.76 879.399 108.812 878.94 108.854C878.493 108.906 877.972 108.937 877.378 108.937Z" fill="black"/>
</svg>
