<svg width="254" height="107" viewBox="0 0 254 107" fill="none" xmlns="http://www.w3.org/2000/svg">
<path d="M42.2794 106.276C57.2429 106.276 72.1231 82.7707 88.8002 55.3644C98.8835 52.6769 109.779 51.8644 114.337 51.703C114.743 51.703 114.988 51.4582 114.988 51.2134C114.988 51.0519 114.743 50.8071 114.337 50.8071H113.602C106.691 50.8071 97.1752 51.8644 89.8575 53.4946C102.378 32.5103 103.436 31.7759 119.295 15.0259C121.983 12.1769 124.097 9.73942 125.399 7.94775C126.373 6.64567 126.779 5.58838 126.779 4.93734C126.779 4.12484 126.29 3.80192 125.477 3.80192C124.91 3.80192 124.175 3.96338 123.201 4.36963C117.67 6.89046 108.561 18.0311 101.243 29.6613C89.6908 39.4217 79.0398 46.0103 69.769 47.229L69.2794 47.3123C68.2221 47.3123 67.7325 46.7446 67.7325 45.7655C67.7325 38.9321 91.644 10.7134 95.8731 2.09359L96.1179 1.44255C96.1179 0.791504 95.3054 0.463379 94.571 0.463379C94.0867 0.463379 93.5971 0.630045 93.3523 0.869629C79.2013 18.6821 12.6752 8.43734 0.96167 52.7603V53.0884C0.96167 53.4113 1.12313 53.5728 1.36792 53.5728C1.61271 53.5728 1.8575 53.4113 1.93563 52.9217C12.269 13.9686 69.769 19.4946 90.1804 5.74984C84.7325 13.6405 65.295 37.0623 65.295 45.604C65.295 47.6353 66.3523 48.8592 68.8731 48.8592L69.8471 48.7759C78.5502 47.88 88.6335 41.7811 99.4513 32.9998C95.6283 39.3436 90.5867 47.3905 86.6856 54.0623C69.6856 59.104 54.1492 65.0415 41.6283 78.38C35.2013 85.2134 32.1127 91.9634 32.1127 97.0832C32.1127 102.614 35.6075 106.193 42.1127 106.276H42.2794ZM108.483 23.4009C110.837 19.8228 122.467 5.26546 124.826 5.26546L124.988 5.34359L125.071 5.51025C125.071 7.13525 110.186 21.9373 108.483 23.4009ZM42.2794 104.729H42.1127C36.3419 104.729 33.4929 101.724 33.4929 97.2498C33.4929 92.6144 36.5033 86.3488 42.3575 80.005C51.0606 70.4894 65.295 62.1925 85.6283 55.9321C70.6596 80.9842 56.2638 104.729 42.2794 104.729Z" fill="black"/>
<path d="M110.593 65.0418C113.114 65.0418 123.932 54.7918 126.046 51.4585C127.916 53.7345 130.76 54.4689 133.609 54.4689C138.161 54.4689 142.963 52.5158 144.911 51.297C145.239 51.1356 145.322 50.9741 145.322 50.8908C145.322 50.8075 145.239 50.7293 145.078 50.7293L144.833 50.8075C142.718 52.0314 138.083 53.7345 133.854 53.7345C130.927 53.7345 128.239 53.0054 126.614 50.7293C127.671 49.1825 128.078 48.0418 128.078 47.2293C128.078 46.2554 127.588 45.8491 126.937 45.8491C126.124 45.8491 124.989 46.8231 124.989 48.6147C124.989 49.1825 125.067 49.7502 125.312 50.4845C121.979 55.2814 116.286 60.3231 111.489 63.5783C113.031 58.4533 114.822 53.6564 117.015 48.6147C117.098 48.4481 117.098 48.2866 117.098 48.1252C117.098 47.5575 116.692 47.3127 116.124 47.3127C115.718 47.3127 115.307 47.4741 115.067 47.8804C114.661 48.5314 110.02 60.4064 110.02 63.9845C110.02 64.4741 110.104 64.8804 110.348 64.9585L110.593 65.0418ZM126.046 49.5887C125.88 49.1825 125.88 48.7762 125.88 48.4481C125.88 47.3127 126.453 46.6616 126.859 46.6616C127.02 46.6616 127.104 46.745 127.104 47.0679C127.104 47.4741 126.859 48.2866 126.046 49.5887Z" fill="black"/>
<path d="M152.149 69.8385C158.086 69.6771 171.591 55.3646 181.185 51.3802C181.347 51.2135 181.513 51.0521 181.513 50.974C181.513 50.8073 181.347 50.6458 181.107 50.6458L180.779 50.7292C173.461 52.7604 157.763 68.6198 152.393 68.6198H152.232C151.419 68.5365 150.852 67.6458 150.852 66.0156C150.852 64.3073 151.503 61.625 153.451 58.1302C155.081 55.2031 156.623 52.599 158.169 50.6458L158.253 50.401C158.253 49.9167 157.518 49.2656 156.951 49.2656C156.706 49.2656 156.544 49.3437 156.461 49.5052L155.32 51.2135C153.779 49.0208 152.232 48.125 150.445 48.125C149.956 48.125 149.388 48.125 148.899 48.2865C143.529 49.75 140.685 54.3073 140.685 57.6406C140.685 59.6719 141.742 61.2187 144.018 61.2187C145.727 61.2187 148.164 60.3229 151.336 57.9635C150.034 60.651 149.305 63.6615 149.305 65.9375C149.305 68.2135 150.034 69.8385 151.909 69.8385H152.149ZM143.935 60.1615C142.8 60.1615 142.149 59.5937 142.149 58.5365C142.149 57.3958 142.8 55.849 144.425 53.7344C146.133 51.4583 148.331 49.4271 150.524 49.4271C151.909 49.4271 153.289 50.2396 154.508 52.3542C150.362 57.724 146.133 60.1615 143.935 60.1615Z" fill="black"/>
<path d="M172.97 66.7502L173.376 66.5887C175.98 63.9845 182.079 57.3179 187.61 54.146V56.0158C187.61 60.0783 188.339 65.8543 193.464 66.0158H193.626C199.73 66.0158 211.36 55.0366 217.053 51.2137C217.214 51.1356 217.298 51.0522 217.298 50.9741C217.298 50.8075 217.131 50.7293 216.97 50.7293H216.725C211.767 53.495 199.892 64.8804 193.954 64.8804C190.944 64.797 189.886 61.2189 189.886 57.6408C189.886 56.2606 190.048 54.8752 190.293 53.7345L190.376 53.1668C190.376 52.5991 190.048 52.5158 189.808 52.3543C189.563 52.1929 189.319 52.1929 188.99 52.1929C185.168 52.1929 175.897 62.3595 173.704 64.8804C176.142 60.0002 179.803 54.6304 183.053 50.2397C183.136 50.1564 183.22 49.995 183.22 49.9168C183.22 49.5054 182.647 49.021 182.162 49.021C181.918 49.021 181.756 49.0991 181.511 49.3439C181.022 49.9168 178.095 54.3856 175.329 59.1043C173.621 61.9533 173.053 63.8231 172.319 65.7762V66.0158C172.319 66.422 172.647 66.7502 172.97 66.7502Z" fill="black"/>
<path d="M224.043 69.8385C229.98 69.6771 243.485 55.3646 253.079 51.3802C253.241 51.2135 253.407 51.0521 253.407 50.974C253.407 50.8073 253.241 50.6458 253.001 50.6458L252.673 50.7292C245.355 52.7604 229.657 68.6198 224.287 68.6198H224.126C223.313 68.5365 222.746 67.6458 222.746 66.0156C222.746 64.3073 223.397 61.625 225.345 58.1302C226.975 55.2031 228.517 52.599 230.063 50.6458L230.147 50.401C230.147 49.9167 229.412 49.2656 228.845 49.2656C228.6 49.2656 228.438 49.3437 228.355 49.5052L227.215 51.2135C225.673 49.0208 224.126 48.125 222.34 48.125C221.85 48.125 221.282 48.125 220.793 48.2865C215.423 49.75 212.579 54.3073 212.579 57.6406C212.579 59.6719 213.636 61.2187 215.912 61.2187C217.621 61.2187 220.058 60.3229 223.23 57.9635C221.928 60.651 221.199 63.6615 221.199 65.9375C221.199 68.2135 221.928 69.8385 223.803 69.8385H224.043ZM215.829 60.1615C214.694 60.1615 214.043 59.5937 214.043 58.5365C214.043 57.3958 214.694 55.849 216.319 53.7344C218.027 51.4583 220.225 49.4271 222.418 49.4271C223.803 49.4271 225.183 50.2396 226.402 52.3542C222.256 57.724 218.027 60.1615 215.829 60.1615Z" fill="black"/>
</svg>
